<svg xmlns="http://www.w3.org/2000/svg" width="147.519" height="135.393" viewBox="0 0 147.519 135.393"><defs><style>.a{fill:#eee3ff;}.a,.b,.c,.d{stroke:#6500ff;}.a,.b,.d{stroke-miterlimit:10;}.a,.b{stroke-width:1.292px;}.b{fill:#fff;}.c,.d{fill:none;}.d{stroke-width:1.5px;}</style></defs><g transform="translate(-629.831 -132.607)"><g transform="translate(-2343.492 -3295.353)"><path class="a" d="M3177.54,3545.984l-15.106-20.027L3048.408,3612.3l14.883,19.756c8.216,10.906,40.453.479,72-23.291S3185.757,3556.89,3177.54,3545.984Z" transform="translate(-59.387 -77.729)"/><ellipse class="b" cx="71.522" cy="24.724" rx="71.522" ry="24.724" transform="matrix(0.799, -0.602, 0.602, 0.799, 2974.228, 3514.94)"/><line class="b" x2="13.249" y2="20.162" transform="translate(3017.978 3535.503)"/><line class="b" x2="13.249" y2="20.162" transform="translate(3027.832 3531.826)"/><line class="b" x2="13.249" y2="20.162" transform="translate(3010.223 3537.283)"/><line class="b" x2="13.249" y2="20.162" transform="translate(3039.606 3525.422)"/><line class="b" x2="14.017" y2="20.455" transform="translate(3095.824 3477.36)"/><line class="b" x2="14.017" y2="20.455" transform="translate(3099.147 3472.407)"/><line class="b" x2="14.216" y2="20.654" transform="translate(3104.496 3460.687)"/></g><path class="c" d="M-5258.419-251v-37.6" transform="translate(6035 519)"/><g transform="translate(-2390.93 -4101.891)"><path class="d" d="M3073.882,4453.3s-4.771-10.788,19.915-23.856c0,0,21.159-14.106,22.4-1.038Z" transform="translate(0 -131.059)"/><ellipse class="d" cx="14.035" cy="6.638" rx="14.035" ry="6.638" transform="matrix(0.799, -0.602, 0.602, 0.799, 3079.147, 4289.988)"/></g></g></svg>