<svg xmlns="http://www.w3.org/2000/svg" xmlns:xlink="http://www.w3.org/1999/xlink" width="450.401" height="313.338" viewBox="0 0 450.401 313.338"><defs><style>.a,.p,.q,.r{fill:#6c63ff;}.a,.ad,.e,.o{opacity:0.1;}.b{fill:#444053;}.c{fill:none;stroke:#444053;stroke-miterlimit:10;}.d{fill:#d2d4de;}.f{fill:#30374e;}.g{fill:#dfe3ef;}.ad,.h{fill:#fff;}.i{fill:url(#a);}.j{fill:#65617d;}.k{fill:#fbbebe;}.l{fill:#e7effd;}.m{fill:#3f3d56;}.n{fill:#e3a79f;}.p{opacity:0.2;}.q{opacity:0.5;}.s{fill:url(#b);}.t{fill:#2d293d;}.u{fill:#575988;}.v,.w{opacity:0.05;}.x{fill:#ffcdd3;}.y{fill:#dce6f2;}.z{fill:#656691;}.aa{fill:#efb7b9;}.ab{fill:#925978;}.ac{fill:#4c4981;}</style><linearGradient id="a" x1="-5.452" y1="1" x2="-5.452" y2="-0.001" gradientUnits="objectBoundingBox"><stop offset="0" stop-color="gray" stop-opacity="0.251"/><stop offset="0.54" stop-color="gray" stop-opacity="0.122"/><stop offset="1" stop-color="gray" stop-opacity="0.102"/></linearGradient><linearGradient id="b" x1="-8.359" y1="0.872" x2="-8.359" y2="-0.14" xlink:href="#a"/></defs><g transform="translate(0.013 -14.013)"><path class="a" d="M263.964,111.461c-28.317,4.727-56.677,2.181-83.979-1.34s-54.54-8.019-82.916-7.147c-18.243.567-38.537,4.152-51.161,15.154-12.144,10.589-13.881,25.061-13.766,38.144.087,9.847,1.011,20.044,7.678,27.956,4.628,5.5,11.7,9.483,17.054,14.563,18.64,17.68,13.353,45.069,1.551,68.266-5.552,10.879-12.338,21.563-16.062,32.715s-4.093,23.181,2.927,32.433c6.956,9.153,20.262,14.432,34.107,17.256,28.115,5.739,59.319,2.776,89.5-1.34,66.8-9.173,132.871-24.01,198.706-38.8,24.379-5.477,48.864-10.982,72.319-19.037,13.024-4.466,26.274-10.085,34.615-18.969,10.585-11.283,10.68-26.857.222-36.308-17.526-15.828-56.788-12.869-70.419-30.9-7.512-9.915-4.454-23.244,1.285-34.968,12.294-25.144,36.388-49.832,32.917-75.1-2.38-17.355-19.187-31.882-41.516-35.9-23.4-4.212-53.306,2.82-66.541,20.072C316.838,95.97,288.965,107.289,263.964,111.461Z" transform="translate(-32.15 -42.936)"/><path class="b" d="M900.667,173l.119.2c-10.748,13.417-11.458,34.25-11.5,34.428l-2.265-2.618C887.06,204.823,889.848,186.5,900.667,173Z" transform="translate(-547.991 -112.962)"/><path class="c" d="M930.1,225.119s-5.81-12.187-.639-20.119" transform="translate(-572.305 -132.271)"/><path class="c" d="M922.46,148.67s3.784,5.009,4.759,3.887" transform="translate(-569.376 -98.281)"/><path class="c" d="M900.4,159.26s-.024,11.2-3.054,12" transform="translate(-554.224 -104.671)"/><path class="c" d="M842.17,187.925s12.112,1.035,17.7-5.215" transform="translate(-520.928 -118.821)"/><path class="c" d="M823.85,158.662A15.86,15.86,0,0,0,839.8,154.05" transform="translate(-509.874 -101.527)"/><ellipse class="a" cx="140.2" cy="6.675" rx="140.2" ry="6.675" transform="translate(127.827 314.001)"/><path class="d" d="M561.2,721.811v3.1H469.48V722.39a30.141,30.141,0,0,0,2.074-55.67h89.02a30.176,30.176,0,0,0,.623,55.091Z" transform="translate(-296.045 -410.875)"/><path class="e" d="M563.742,666.72a30.193,30.193,0,0,0-16.657,19.988h-55.7A30.193,30.193,0,0,0,474.73,666.72Z" transform="translate(-299.213 -410.875)"/><path class="d" d="M204.68,626.89V644.3c0,9.617,7.036,17.411,15.717,17.411H490.232c8.681,0,15.717-7.793,15.717-17.411V626.89Z" transform="translate(-136.263 -386.841)"/><path class="e" d="M561.2,800.779v3.1H469.48v-2.522a30.04,30.04,0,0,0,7.075-3.768h79.018A30.18,30.18,0,0,0,561.2,800.779Z" transform="translate(-296.045 -489.843)"/><rect class="d" width="152.328" height="9.189" rx="4.595" transform="translate(143.127 308.715)"/><path class="f" d="M505.949,121.947a15.717,15.717,0,0,0-15.717-15.717H220.4a15.717,15.717,0,0,0-15.717,15.717V316.1H505.949Z" transform="translate(-136.263 -72.672)"/><path class="g" d="M510.24,151.749V318.585a7.738,7.738,0,0,1-7.738,7.738H233.148a7.734,7.734,0,0,1-7.738-7.738V151.749A7.738,7.738,0,0,1,233.148,144H502.5A7.742,7.742,0,0,1,510.24,151.749Z" transform="translate(-148.772 -95.463)"/><circle class="h" cx="3.629" cy="3.629" r="3.629" transform="translate(215.422 37.424)"/><circle class="h" cx="8.947" cy="8.947" r="8.947" transform="translate(210.104 249.234)"/><path class="h" d="M510.236,151.749H225.41A7.734,7.734,0,0,1,233.148,144H502.5a7.734,7.734,0,0,1,7.738,7.749Z" transform="translate(-148.772 -95.463)"/><rect class="h" width="229.874" height="134.335" transform="translate(103.456 77.714)"/><path class="i" d="M970.531,633.508c.083-.226-.547-1.5-.547-1.559s-.646-.769-.646-1.162-.861-1.249-.861-1.249a2.156,2.156,0,0,1-1.273-1.515c-.123-1.039-1.38-1.059-1.384-1.059h0v-.238a3.36,3.36,0,0,0-.151-1.218,1.238,1.238,0,0,0-.714-.6,2.68,2.68,0,0,0-.4-1.059,1.19,1.19,0,0,1-.293-1.122c.127-.4-.167-1.392-.793-1.539s-1.3-.373-1.3-.373l-.167.028-.083-.028a4.105,4.105,0,0,1-.44.056.555.555,0,0,1-.357-.119,7.3,7.3,0,0,0-2.217-.662,5.251,5.251,0,0,1-1.214-.4l-.9-.686a5.871,5.871,0,0,1-.793-1.087h0a4.446,4.446,0,0,1-.19-.547h0a4.949,4.949,0,0,0,.793-1.071l.059-.123a.5.5,0,0,0,.135,0l.056-.024a.88.88,0,0,0,.444-.531h0a.883.883,0,0,0,.04-.135v-.048a.826.826,0,0,0,0-.1.242.242,0,0,0,0-.052.824.824,0,0,0,0-.1v-.171h0c.02-.147.036-.293.067-.44h0a8.363,8.363,0,0,1,.706-1.563h0a1.852,1.852,0,0,0,.1-.226c.032-.083.059-.171.083-.254a.574.574,0,0,0,0-.079,1.136,1.136,0,0,1,.044-.186.178.178,0,0,0,0-.083c0-.087.024-.174.032-.262a3.172,3.172,0,0,0-.214-1.459c-.155-.4-.4-.742-.547-1.13-.242-.591-.305-1.261-.6-1.824a2.177,2.177,0,0,0-2.606-1.063c-.456.171-.849.5-1.313.646a4.367,4.367,0,0,1-1.92-.04,2.386,2.386,0,0,0-1.86.321c-.595.48-.757,1.384-1.313,1.915-.234.222-.524.361-.769.567a1.249,1.249,0,0,0-.4.527v.044a.383.383,0,0,0,0,.056.345.345,0,0,0,0,.063v.044a1.054,1.054,0,0,0,0,.111h0a.931.931,0,0,0,.02.1v.028a.563.563,0,0,0,.028.087h0l.036.1.024.048a.12.12,0,0,0,0,.04,2.576,2.576,0,0,1,.194.484.544.544,0,0,1,0,.317.923.923,0,0,1-.234.305,4.388,4.388,0,0,0-.944,1.511c-.024.063-.044.131-.067.194h.028a.992.992,0,0,0,.182.04h.107a1.684,1.684,0,0,0,.424-.032l.107-.024a2.489,2.489,0,0,0,.424-.159v.2a4.938,4.938,0,0,0,2.745,4.418v.135a1.054,1.054,0,0,1,0,.111l-.056-.052s-.4-.186-.734.353a2.379,2.379,0,0,1-1.027.793s-3.807.6-3.966,1.1l-1.777.1s-.627.083-.69,1.392-.4,1.432-.4,1.432a4.962,4.962,0,0,0-.67,1.955,1.082,1.082,0,0,1-.567,1l-.083,1.19a.793.793,0,0,0-.876.706,2.861,2.861,0,0,1-.524,1.19s-1.15.956-1.214,1.765l-.714.436s-1.65-.373-2.026-1.039l-.119-.107h0a5.652,5.652,0,0,0-.69-.611.512.512,0,0,1,.032.333l-.123-.135-.2-.413s-2.459-2.824-4.025-3.022h0a.987.987,0,0,0-.706.682c-.2.674-.4,1.793.111,2.344l2.479,2.641.063.048.539.69c-.091.218-.171.428-.234.623h0a.447.447,0,0,1-.04.123v.04l-.036.115a.085.085,0,0,1-.02.067v.04c-.059.21-.1.369-.115.46l-.139-.044.135.059h0a.179.179,0,0,0,0,.044l.127.056c.734.321,4.39,1.923,4.581,2.169a2.645,2.645,0,0,0,2.844.4,3,3,0,0,0,1.527-1.682,17.751,17.751,0,0,0,1.237-1.884c.04-.246.984-.539.984-.539a12.643,12.643,0,0,1-.4,3.8,48.823,48.823,0,0,0-1.38,5.521.672.672,0,0,1,.178,0l-.052.262a.622.622,0,0,1,.222,0c-.067.516-.452,2.9-.452,2.9a6.1,6.1,0,0,1-.333,1.455,10.452,10.452,0,0,0-.234,2.324l-.333,1.416s.044.1.127.242h0a3.569,3.569,0,0,0,.964,1.241,2.445,2.445,0,0,1-.171.646,2.293,2.293,0,0,0-.167,1,12.551,12.551,0,0,0-.313,2.058,7.754,7.754,0,0,1-.23,1.586l-.4,3.617a34.271,34.271,0,0,0-.127,3.966,7.575,7.575,0,0,1-.083,2.015s.25,2.475.19,2.744a4.844,4.844,0,0,0-.19,2.078,10.16,10.16,0,0,1,.083,2.411s.127,2.328.274,3.074a5.261,5.261,0,0,1-.044,1.705,13.8,13.8,0,0,1-.21,1.586,1.745,1.745,0,0,0,.5,2.185c1.11,1.083.42.912.42.912s-.88-.436-.793.456.238.631.25.607l-.206.682.147.02c-.04.047-.079.1-.123.147a3.22,3.22,0,0,1-.42.436.913.913,0,0,0-.274.6,16.357,16.357,0,0,1-2.99,2.534,8.889,8.889,0,0,0-1.7,1.142c-.258.282-.214.512.321.686a8.111,8.111,0,0,0,4.537.083,5.294,5.294,0,0,0,2.221-1.432,3.2,3.2,0,0,1,1.777-.293c.88.167,2.637-.976,2.637-.976l-.032-.293-.1-.849a.674.674,0,0,1-.147-.52,2.78,2.78,0,0,0-.071-.746,1.207,1.207,0,0,0-.048-.242l.163-.032s-.21-1.059.167-1.265.27-2.931.27-2.931a3.333,3.333,0,0,0-.73-.726c-.25-.107-.024-1.4,0-1.559s.4-3.391.4-3.391a4.362,4.362,0,0,1,.044-1.452,7.115,7.115,0,0,0-.21-2.118.4.4,0,0,1,.1-.46,9.483,9.483,0,0,0,.147-2.471s-.02-1.122-.02-1.416a5.127,5.127,0,0,1,.48-1.7,3.321,3.321,0,0,0,.087-1.455h0v-.313a16.2,16.2,0,0,1,.4-1.8c.274-.872.587-2.411.587-2.411l1.947-5.073v-.059a7.95,7.95,0,0,1,.9,3.2,18.265,18.265,0,0,1,.167,2.348,27.611,27.611,0,0,0,.19,2.844s.27,3.367.27,3.514a20.534,20.534,0,0,0,.547,3.137c.21.4-.21,1.586-.337,1.725a26.08,26.08,0,0,0,.04,3.173s-.313,2.411-.377,2.911a11.92,11.92,0,0,0-.1,3.173c.21.761.127.849.127.849s.754.769.313.833a1.15,1.15,0,0,0-.837,1.515,19.785,19.785,0,0,0,.92,2.225l.349-.071v.246l.024,1.237a7.329,7.329,0,0,1,.063,1.455c-.059.2-.147,1.13-.186,1.614a1.673,1.673,0,0,1-.024.3s0,1.1,2.324.769,2.74-1.245,2.74-1.245v-.115c.036-.21.111-.658.171-.9a6.522,6.522,0,0,0-.666-1.828,3.83,3.83,0,0,0-.337-1.249,1.071,1.071,0,0,1-.167-.436,1.438,1.438,0,0,0-.052-.254l.155.028s-.123-.73.357-.956a.69.69,0,0,0,.293-.916,6.992,6.992,0,0,1,.187-1.372.682.682,0,0,1,.167-.662,8.344,8.344,0,0,0,.524-2.328l.044-7.856a7.55,7.55,0,0,0-.02-1.951c-.171-.563-.337-1.642-.107-1.935s.024-1.638.024-1.638a16.814,16.814,0,0,1,.313-3.569c.313-.722.21-5.176.21-5.176l.083-2.931s.682-.643.52-4.018a5.737,5.737,0,0,1,1.678.028c.23.186,1.713,1.146,2.594.543a12.608,12.608,0,0,0,1.043-.813l-.369-6.231c.23.349.373.579.373.579,0-.873,2.467-3.7,2.467-3.7a39.673,39.673,0,0,1,2.8-3.323,10.486,10.486,0,0,0,1.487-2.221,8.927,8.927,0,0,1,.5-1.039C971.2,634.734,970.444,633.738,970.531,633.508Zm-5.4,2.181a4.247,4.247,0,0,0-1.983,1.808,1.251,1.251,0,0,1-.277.559,2,2,0,0,0-.028-.4,42.874,42.874,0,0,1-.238-4.287,12.457,12.457,0,0,0,.083-2.058h0l.024-.032a10.529,10.529,0,0,0,1.733,2.84s.23.666.5.686S965.13,635.689,965.13,635.689Z" transform="translate(-573.044 -374.447)"/><path class="j" d="M936.21,673.021s.765-4,3.22-4.021l1.793,3.688-1.19.825A11.279,11.279,0,0,1,936.21,673.021Z" transform="translate(-577.672 -412.251)"/><path class="e" d="M941.235,672.712l-1.19.825a14.069,14.069,0,0,1-3.133-.262,3.92,3.92,0,0,1-.682-.23v-.067a8.7,8.7,0,0,1,.464-1.471c.075-.178.159-.365.254-.547a3.7,3.7,0,0,1,1.555-1.705,2.059,2.059,0,0,1,.817-.214h.111l.036.079.607,1.249Z" transform="translate(-577.685 -412.275)"/><path class="j" d="M997.354,702.771a13.708,13.708,0,0,1,2.8-.06c.226.186,1.693,1.134,2.558.535s.289-2.681.289-2.776-.083-3.03-.083-3.03l-1.547-2.082-1.939-3.653-3.966-.4.1,5.794v2.966Z" transform="translate(-613.43 -425.713)"/><path class="e" d="M997.354,702.771a13.708,13.708,0,0,1,2.8-.06c.226.186,1.693,1.134,2.558.535s.289-2.681.289-2.776-.083-3.03-.083-3.03l-1.547-2.082-1.939-3.653-3.966-.4.1,5.794v2.966Z" transform="translate(-613.43 -425.713)"/><path class="k" d="M934.06,662.962s-.2,2.514-1.773,2.554c0,0-.444-.266-1.039-.714-1.38-1.031-3.569-3.01-2.959-4.854.865-2.637,5.073,2.229,5.073,2.229l.325.361Z" transform="translate(-572.83 -406.316)"/><path class="e" d="M938.517,668.094s-.2,2.514-1.773,2.554c0,0-.444-.266-1.039-.714l-.135-.171a2.042,2.042,0,0,0,.857.23,1.15,1.15,0,0,0,1.122-.706,8.563,8.563,0,0,0,.436-1,3.21,3.21,0,0,0,.159-.619Z" transform="translate(-577.286 -411.448)"/><path class="l" d="M938.04,672.337l-.353-.456-1.19-1.527-.607-.793a2.088,2.088,0,0,0,.861.234,1.158,1.158,0,0,0,1.118-.71,8.82,8.82,0,0,0,.436-1c.194-.559.19-.845.123-.94a5.838,5.838,0,0,1,.678.615h0l.115.107.04.083.6,1.19v.052C939.927,669.589,940.13,672,938.04,672.337Z" transform="translate(-577.479 -411.135)"/><path class="j" d="M954.992,809.05s-1.733,1.134-2.6.968a3.1,3.1,0,0,0-1.753.289,5.211,5.211,0,0,1-2.185,1.424,8.031,8.031,0,0,1-4.474-.083c-.528-.174-.571-.4-.317-.682a8.8,8.8,0,0,1,1.678-1.134,16.144,16.144,0,0,0,2.951-2.514.9.9,0,0,1,.266-.6,3.161,3.161,0,0,0,.4-.432c.222-.262.428-.535.428-.535l5.1.163s.087.369.155.746a2.743,2.743,0,0,1,.071.742.67.67,0,0,0,.143.516l.091.841Z" transform="translate(-582.078 -494.767)"/><path class="j" d="M991.49,811.079c-.063.25-.135.69-.171.9v.111s-.4.908-2.7,1.237-2.288-.761-2.288-.761a2.4,2.4,0,0,1,.024-.294,15.118,15.118,0,0,1,.182-1.586,7.512,7.512,0,0,0-.063-1.444l-.024-1.229v-.857l3.791-.4a7.788,7.788,0,0,0,.123.845,1.137,1.137,0,0,0,.167.432,3.8,3.8,0,0,1,.329,1.237A6.462,6.462,0,0,1,991.49,811.079Z" transform="translate(-607.915 -495.376)"/><path class="e" d="M962.75,805.913s.087.369.155.746c-.551.1-2.955.516-3.569.226a9.268,9.268,0,0,0-2.146-.516l.024-.083c.222-.262.428-.535.428-.535Z" transform="translate(-590.332 -494.767)"/><path class="e" d="M990.489,807.567a14.913,14.913,0,0,0-3.9.4v-.857l3.791-.4a7.789,7.789,0,0,0,.107.857Z" transform="translate(-608.072 -495.346)"/><path class="m" d="M974.447,711.011l-.079,2.907s.1,4.434-.206,5.156a16.657,16.657,0,0,0-.309,3.526s.206,1.341-.024,1.63-.06,1.36.1,1.916a7.461,7.461,0,0,1,.02,1.939l-.04,7.8a8.438,8.438,0,0,1-.516,2.308.666.666,0,0,0-.163.658,6.867,6.867,0,0,0-.186,1.364.682.682,0,0,1-.29.9c-.476.23-.353.952-.353.952-1.13-.27-4.363.452-4.363.452a18.951,18.951,0,0,1-.908-2.209,1.138,1.138,0,0,1,.825-1.5c.432-.063-.309-.825-.309-.825s.083-.1-.127-.845a11.842,11.842,0,0,1,.1-3.137l.373-2.883a26.089,26.089,0,0,1-.04-3.173,2.752,2.752,0,0,0,.329-1.709,20.489,20.489,0,0,1-.535-3.117c0-.147-.27-3.486-.27-3.486s-.246-2.328-.186-2.824a18.122,18.122,0,0,0-.163-2.328,7.931,7.931,0,0,0-.888-3.173l-.02.06-1.919,5.033s-.309,1.527-.575,2.38a15.821,15.821,0,0,0-.4,1.793v.309h0a3.3,3.3,0,0,1-.079,1.444,5.027,5.027,0,0,0-.476,1.689c0,.29.02,1.4.02,1.4a9.485,9.485,0,0,1-.143,2.451.4.4,0,0,0-.1.456,7.17,7.17,0,0,1,.206,2.1,4.33,4.33,0,0,0-.044,1.444s-.329,3.2-.369,3.363-.27,1.444-.02,1.547a3.309,3.309,0,0,1,.718.722s.107,2.7-.266,2.907-.167,1.257-.167,1.257-2.99.579-3.669.246a9.489,9.489,0,0,0-2.145-.516l.206-.678c0,.024-.151.246-.246-.6s.761-.456.761-.456.682.167-.4-.9a1.759,1.759,0,0,1-.5-2.165,13.585,13.585,0,0,0,.206-1.586,5.317,5.317,0,0,0,.044-1.694c-.147-.742-.27-3.054-.27-3.054a11.078,11.078,0,0,0-.083-2.38,5.06,5.06,0,0,1,.186-2.062c.063-.27-.186-2.721-.186-2.721a7.643,7.643,0,0,0,.083-1.983,34.32,34.32,0,0,1,.123-3.966l.373-3.569a7.711,7.711,0,0,0,.226-1.586,12.917,12.917,0,0,1,.309-2.039,2.293,2.293,0,0,1,.163-.991,7.4,7.4,0,0,0,.29-1.773l1.983-4.537.968-4,13.088-.123s.048.349.127.98.19,1.563.313,2.713c.115,1.047.242,2.28.361,3.649C975.272,710.241,974.447,711.011,974.447,711.011Z" transform="translate(-589.885 -430.069)"/><path class="k" d="M988.162,633.877l-3.054,3.26s-3.918-1.586-3.506-2.1a3.056,3.056,0,0,0,.044-1.586c-.147-1.142-.456-2.455-.456-2.455s6.845-1.115,6.27.04a1.892,1.892,0,0,0-.044,1.368A5.024,5.024,0,0,0,988.162,633.877Z" transform="translate(-604.814 -389.026)"/><path class="e" d="M987.46,631.024c-.21.42-.313.464-.182.916-.892.96-2.031,2.011-3.446,2.011a4.858,4.858,0,0,1-2.185-.512c-.147-1.142-.456-2.455-.456-2.455S988.035,629.87,987.46,631.024Z" transform="translate(-604.814 -389.02)"/><path class="k" d="M985.283,619.195a4.91,4.91,0,1,1-9.816,0v-.067a4.91,4.91,0,0,1,9.816.067Z" transform="translate(-601.359 -379.297)"/><path class="e" d="M981.005,704.021c-.646,0-2.812.024-5.231.06h-.853c-2.867.044-5.7-.516-6.829-.4-2.411.226.865-2.229.865-2.229a20.136,20.136,0,0,0,5.5.555l.694-.036a29.684,29.684,0,0,0,5.552-.674C980.775,701.942,980.886,702.867,981.005,704.021Z" transform="translate(-596.376 -431.741)"/><path class="n" d="M981.005,703.707c-.646,0-2.812.024-5.231.063h-.853c-2.867.048-5.7-.512-6.829-.4-2.411.226.865-2.229.865-2.229a20.136,20.136,0,0,0,5.5.555l.694-.036a29.679,29.679,0,0,0,5.552-.674C980.775,701.629,980.886,702.557,981.005,703.707Z" transform="translate(-596.376 -431.554)"/><path class="e" d="M974.292,641.308l-3.776,1.773-2.947,22.646s1.733-.793,2.721-.289,4.041.044,4.041.044a9.306,9.306,0,0,1,2.558.123c.329.25,4.208-1.031,4.208-1.031s.7-1.586.163-1.816.167-2.681.167-2.681l-.329-16.332-.662-2.1-1.773-1.071-1.8,1.436-.869.127Z" transform="translate(-596.595 -395.096)"/><path class="l" d="M974.322,640.672l-3.776,1.773L967.62,665.09s1.733-.793,2.721-.289,4.041.04,4.041.04a9.462,9.462,0,0,1,2.558.123c.329.246,4.208-1.031,4.208-1.031s.7-1.586.163-1.812.167-2.681.167-2.681l-.329-16.332L980.485,641l-1.773-1.071-1.82,1.444-.869.123Z" transform="translate(-596.625 -394.71)"/><path class="e" d="M979.877,643.973s1.095,1.3,1.075,1.586-.063.9-.063.9l-.825,1.674s-.452,2.082-.452,2.514-.722,4.184-.722,4.184l-.869,5.774-1.091,7.571,1.11,1.916,1.321-1.114,1.753-13.484.373-2.661s.4-4.783.4-5.279a16.53,16.53,0,0,0-.23-1.793,2.117,2.117,0,0,1,1.384-1.527c1.114-.29-.083-.063-.083-.063l-.638-.516-.559.226S980.206,643.4,979.877,643.973Z" transform="translate(-602.243 -396.961)"/><path class="m" d="M979.561,643.669s1.095,1.3,1.071,1.586-.059.908-.059.908l-.825,1.67s-.456,2.086-.456,2.518-.722,4.184-.722,4.184l-.865,5.774-1.095,7.567,1.114,1.92,1.321-1.114L980.8,655.2l.373-2.661s.4-4.783.4-5.279a16.918,16.918,0,0,0-.226-1.8,2.107,2.107,0,0,1,1.384-1.523c1.114-.286-.083-.063-.083-.063L982,643.36l-.559.226S979.89,643.094,979.561,643.669Z" transform="translate(-602.05 -396.78)"/><path class="e" d="M980.975,638.68s-.167.127-.206.952a16.391,16.391,0,0,1-.619,2.677s2.146-1.483,3.216-1.317Z" transform="translate(-604.186 -393.956)"/><path class="l" d="M980.975,638.06s-.167.123-.206.948a16.363,16.363,0,0,1-.619,2.681s2.146-1.483,3.216-1.321Z" transform="translate(-604.186 -393.582)"/><path class="e" d="M991.853,637l-3.383,2.97a33.961,33.961,0,0,1,3.216,2.1c.369.412.742-4.041.742-4.041Z" transform="translate(-609.206 -392.942)"/><path class="l" d="M992.163,636.4l-3.383,2.966A34.088,34.088,0,0,1,992,641.472c.369.412.746-4.041.746-4.041Z" transform="translate(-609.393 -392.58)"/><path class="e" d="M967.563,638.634s-.369-.182-.722.353a2.316,2.316,0,0,1-1.011.793s-3.752.6-3.895,1.095l-1.753.1s-.619.083-.682,1.38-.4,1.424-.4,1.424a4.924,4.924,0,0,0-.658,1.939,1.075,1.075,0,0,1-.555.988l2.578,6.7a12.546,12.546,0,0,1-.4,3.776,47.141,47.141,0,0,0-1.36,5.485s.369-.083.349.163-.452,2.951-.452,2.951a6,6,0,0,1-.333,1.444,10.478,10.478,0,0,0-.226,2.308l-.329,1.4s.793,1.753,1.983,1.507,3.363-4.93,3.363-4.93l1.38-5.053,1.071-4.989.309-3.383.5-7.488.722-4.949S967.853,638.987,967.563,638.634Z" transform="translate(-590.652 -393.91)"/><path class="j" d="M967.247,638.012s-.373-.186-.722.349a2.3,2.3,0,0,1-1.011.793s-3.752.6-3.895,1.091l-1.753.1s-.619.083-.682,1.384-.4,1.424-.4,1.424a4.925,4.925,0,0,0-.658,1.935,1.086,1.086,0,0,1-.559.991l2.578,6.7a12.381,12.381,0,0,1-.4,3.772,46.343,46.343,0,0,0-1.364,5.489s.373-.083.353.163-.456,2.951-.456,2.951a5.947,5.947,0,0,1-.329,1.444,10.46,10.46,0,0,0-.226,2.308l-.329,1.4s.793,1.753,1.983,1.5,3.363-4.93,3.363-4.93l1.38-5.049,1.071-4.993.309-3.383.5-7.484.722-4.95S967.553,638.361,967.247,638.012Z" transform="translate(-590.459 -393.534)"/><path class="e" d="M941.054,672.507l-1.19.825a14.071,14.071,0,0,1-3.133-.262l-.666-.3-.135-.056.139.044a2.724,2.724,0,0,0,1.65.055c1.693-.567,1.507-3.363,1.44-3.994V668.7h0a.9.9,0,0,0,.075.107l.075.079h0l.6,1.19v.052Z" transform="translate(-577.504 -412.07)"/><path class="j" d="M945.4,658l-.579.167-.079,1.19a.793.793,0,0,0-.869.7,2.853,2.853,0,0,1-.516,1.19s-1.134.948-1.19,1.749l-.7.436s-1.63-.373-1.983-1.031c0,0,.742,5.318-3.22,4.022,0,0,4.434,1.935,4.64,2.205a2.6,2.6,0,0,0,2.8.4,3,3,0,0,0,1.507-1.67,18.57,18.57,0,0,0,1.237-1.92c.048-.246.968-.535.968-.535l1.777-4.291Z" transform="translate(-577.703 -405.613)"/><path class="e" d="M995.178,639.121l.6-2.721a3.246,3.246,0,0,0,.535,1.091l.888.682a5.125,5.125,0,0,0,1.19.4,7.064,7.064,0,0,1,2.185.658c.2.226,1.031.063,1.031.063s.682.226,1.281.369.884,1.134.761,1.527a1.19,1.19,0,0,0,.29,1.114,2.678,2.678,0,0,1,.373,1.051,1.19,1.19,0,0,1,.7.6,4.176,4.176,0,0,1,.147,1.444l-3.07,4.331a12.659,12.659,0,0,1-.083,2.038c-.123.373.432,6.683.432,6.683l.643,10.847a12.109,12.109,0,0,1-1.031.793,25.727,25.727,0,0,1-.373-3.966c0-.131-4.759-7.139-4.759-7.139a6.419,6.419,0,0,1-.638-1.257c0-.226-.6-2.308-.6-2.308l-.908-4.021Z" transform="translate(-613.008 -392.58)"/><path class="j" d="M1005.8,645.142v.238l-3.078,4.315h0a12.568,12.568,0,0,1-.079,2.038,42.521,42.521,0,0,0,.23,4.26c.1,1.317.2,2.423.2,2.423l.27,4.6.369,6.246a11.511,11.511,0,0,1-1.031.793,25.728,25.728,0,0,1-.373-3.966c0-.131-4.759-7.139-4.759-7.139a6.416,6.416,0,0,1-.638-1.257c0-.226-.6-2.308-.6-2.308l-.9-4.021.4-12.294.349-2.721a5.951,5.951,0,0,0,.793,1.091l.884.682a5.15,5.15,0,0,0,1.19.4,7.062,7.062,0,0,1,2.185.658c.2.226,1.031.063,1.031.063s.678.226,1.277.369.888,1.134.766,1.527a1.19,1.19,0,0,0,.286,1.115,2.615,2.615,0,0,1,.373,1.051,1.19,1.19,0,0,1,.7.6A3.383,3.383,0,0,1,1005.8,645.142Z" transform="translate(-613.394 -392.55)"/><path class="e" d="M958.05,797.06c.1,0,4.434.167,4.362.869S958.05,797.06,958.05,797.06Z" transform="translate(-590.851 -489.523)"/><path class="e" d="M960.5,800s2.907.472,2.142.908S960.5,800,960.5,800Z" transform="translate(-592.329 -491.297)"/><path class="e" d="M987.74,795.92s4.827.4,4.1.948a6.059,6.059,0,0,1-2.514.639A22.22,22.22,0,0,1,987.74,795.92Z" transform="translate(-608.766 -488.835)"/><path class="e" d="M986.29,801.28s2.681.452,2.776.968S986.29,801.28,986.29,801.28Z" transform="translate(-607.891 -492.069)"/><path class="e" d="M990,770s2.455.579,2.6.972Z" transform="translate(-610.13 -473.195)"/><path class="e" d="M965.278,774.45s-1.277.369-.04,1.11S965.278,774.45,965.278,774.45Z" transform="translate(-594.863 -475.88)"/><path class="e" d="M980.46,723.737c.147,0,2.38-.742,3.173-.4a5.248,5.248,0,0,0,1.753.329Z" transform="translate(-604.373 -444.985)"/><path class="e" d="M976.761,728.662l-.02.206-1.919,5.033s-.309,1.527-.575,2.38a15.832,15.832,0,0,0-.4,1.793l1.7-10.553Z" transform="translate(-600.385 -447.562)"/><path class="m" d="M986.779,704.784h-.821l-.468-2.078.694-.036Z" transform="translate(-607.408 -432.568)"/><path class="k" d="M1000.637,698.639l-.512.424-1.713,1.412s-4.64,2.475-5.921.123c-1.126-2.07,4.136-3.569,5.4-3.871l.27-.067Z" transform="translate(-611.538 -428.941)"/><path class="e" d="M963.3,650.54s.908.4,1.115.987S963.3,650.54,963.3,650.54Z" transform="translate(-594.019 -401.112)"/><path class="e" d="M954.834,666.14s-1.321,1.606-.793,2.225S954.834,666.14,954.834,666.14Z" transform="translate(-588.357 -410.525)"/><path class="e" d="M1013.771,652.83s-1.237.123-1.281,1.19Z" transform="translate(-623.7 -402.494)"/><path class="e" d="M986.81,689.392c.123-.123,2.967-4.331,3.629-3.966Z" transform="translate(-608.205 -422.149)"/><path class="e" d="M985.286,619.189a4.917,4.917,0,0,1-.579,2.32h-.036c-.313-.067-.476-.428-.714-.654a.96.96,0,0,0-1.11-.155,1.119,1.119,0,0,0-.547,1.055c-.159-.658-.107-1.36-.262-2.023s-.615-1.333-1.249-1.344c-.27,0-.587.1-.793-.1-.119-.123-.143-.317-.234-.464-.448-.734-1.824-.361-2.38,0a14.6,14.6,0,0,1-1.912,1.3,4.91,4.91,0,0,1,9.816.067Z" transform="translate(-601.362 -379.291)"/><path class="m" d="M977.874,613.474c.091.151.115.345.234.468.2.2.516.1.793.1.631,0,1.091.682,1.245,1.344s.1,1.364.262,2.023a1.122,1.122,0,0,1,.547-1.059.964.964,0,0,1,1.11.159c.238.226.4.587.714.654s.611-.234.722-.563a9.575,9.575,0,0,0,.178-1.027,12.7,12.7,0,0,1,.793-1.781,3.248,3.248,0,0,0-.024-2.3c-.155-.4-.4-.734-.539-1.122-.238-.587-.3-1.249-.591-1.808a2.13,2.13,0,0,0-2.566-1.055c-.448.167-.837.492-1.293.638a4.238,4.238,0,0,1-1.892-.04,2.336,2.336,0,0,0-1.836.321c-.583.476-.742,1.372-1.293,1.9-.23.218-.516.361-.758.563a1.031,1.031,0,0,0-.424.837c.036.428.452.817.3,1.21a.938.938,0,0,1-.226.3,4.311,4.311,0,0,0-1,1.7c1.1.345,2.3-.872,3.173-1.448C976.05,613.114,977.426,612.745,977.874,613.474Z" transform="translate(-599.467 -375.08)"/><path class="e" d="M1008.974,698.639l-.512.424a15.086,15.086,0,0,0-2.312-2.261l.079-.075.27-.067Z" transform="translate(-619.875 -428.941)"/><path class="l" d="M1009.669,696.87s-.182.456-.377.857-.4.757-.4.464c-.024-.579-2.415-2.518-2.415-2.518l.325-.317.4-.365Z" transform="translate(-620.074 -427.933)"/><path class="e" d="M1009.77,688.325l.27,4.6c-.639-1-2.38-3.569-3.53-3.466l2.744-3.153a4.113,4.113,0,0,0,.313-.4C1009.671,687.231,1009.77,688.325,1009.77,688.325Z" transform="translate(-620.092 -422.454)"/><path class="e" d="M1010.151,696.858s-.182.456-.377.857a6.645,6.645,0,0,0-2.495-2.38l.4-.365Z" transform="translate(-620.557 -427.921)"/><path class="j" d="M1011.912,657.66l.742.579s1.237,0,1.36,1.051a2.1,2.1,0,0,0,1.261,1.507s.845.845.845,1.237.638,1.091.638,1.154.619,1.317.535,1.547.658,1.214.432,1.586a9.511,9.511,0,0,0-.5,1.031,10.385,10.385,0,0,1-1.464,2.205,39.705,39.705,0,0,0-2.776,3.3s-2.435,2.8-2.435,3.672c0,0-2.38-3.966-3.776-3.855l2.744-3.173s.476-.516.5-.825a4.03,4.03,0,0,1,1.939-1.793s.1-.849-.167-.869-.5-.678-.5-.678-1.812-2.146-1.836-3.506S1011.912,657.66,1011.912,657.66Z" transform="translate(-620.255 -405.408)"/><path class="e" d="M1020.326,662.6s-1.733,1.281-1.364,1.693S1020.326,662.6,1020.326,662.6Z" transform="translate(-627.574 -408.389)"/><path class="e" d="M1022.68,675.213s3.216-1.031,3.569,0Z" transform="translate(-629.849 -415.723)"/><path class="e" d="M954.992,813.624s-1.733,1.134-2.6.968a3.1,3.1,0,0,0-1.753.289,5.211,5.211,0,0,1-2.185,1.424,8.031,8.031,0,0,1-4.474-.083c-.528-.174-.571-.4-.317-.682,1.214.242,3.918.722,4.648.373a19.563,19.563,0,0,0,2.308-1.444s1.773-.25,2.023-.25a21.725,21.725,0,0,0,2.316-.888Z" transform="translate(-582.078 -499.34)"/><path class="e" d="M991.319,819.92v.111s-.4.908-2.7,1.237-2.288-.761-2.288-.761a2.4,2.4,0,0,1,.024-.293C987.06,820.487,988.642,820.792,991.319,819.92Z" transform="translate(-607.915 -503.317)"/><path class="e" d="M964.688,662s0,4.7-.4,5.156S964.688,662,964.688,662Z" transform="translate(-594.55 -408.027)"/><path class="e" d="M1012.34,665.8l.595,1.682S1013.173,665.832,1012.34,665.8Z" transform="translate(-623.61 -410.32)"/><g class="o" transform="translate(372.858 236.265)"><path d="M975.018,618.54c.151-.4-.246-.766-.3-1.19a.794.794,0,0,0-.064.373c.024.313.258.6.317.892A.544.544,0,0,0,975.018,618.54Z" transform="translate(-973.729 -617.35)"/><path d="M980.454,624.985c-.151-.65-.107-1.34-.254-1.983s-.619-1.329-1.249-1.34c-.274,0-.591.1-.793-.1-.119-.123-.143-.317-.234-.468-.452-.73-1.824-.361-2.38,0-.845.563-2,1.737-3.085,1.471a3.937,3.937,0,0,0-.139.4c1.1.345,2.3-.873,3.173-1.448.563-.4,1.939-.746,2.38,0,.091.151.115.345.234.468.2.2.516.1.793.1.631,0,1.091.682,1.245,1.344s.1,1.364.262,2.023A1.086,1.086,0,0,1,980.454,624.985Z" transform="translate(-972.32 -619.354)"/><path d="M995.937,629.053c-.115.325-.4.627-.726.559s-.472-.428-.71-.654a.972.972,0,0,0-1.114-.155,1.13,1.13,0,0,0-.547,1,1.1,1.1,0,0,1,.488-.6.964.964,0,0,1,1.11.159c.238.226.4.587.714.654s.611-.234.722-.563a2.943,2.943,0,0,0,.115-.591C995.972,628.926,995.957,628.99,995.937,629.053Z" transform="translate(-984.701 -624.195)"/><path d="M1001.787,621.822a13.977,13.977,0,0,0-.793,1.785,3.3,3.3,0,0,0-.063.4,13.121,13.121,0,0,1,.793-1.777,3.173,3.173,0,0,0,.19-.857,3.3,3.3,0,0,1-.127.452Z" transform="translate(-989.583 -619.776)"/></g><rect class="g" width="29.348" height="30.427" transform="translate(125.058 90.409)"/><rect class="g" width="29.348" height="30.427" transform="translate(162.735 90.409)"/><rect class="p" width="29.348" height="30.427" transform="translate(200.411 90.409)"/><rect class="p" width="29.348" height="30.427" transform="translate(238.088 90.409)"/><rect class="p" width="29.348" height="30.427" transform="translate(275.764 90.409)"/><rect class="a" width="29.348" height="30.427" transform="matrix(0.797, -0.603, 0.603, 0.797, 279.29, 96.793)"/><path class="h" d="M377.042,257.54a4.9,4.9,0,1,0,4.9,4.9A4.9,4.9,0,0,0,377.042,257.54Zm3.371,6.219c-.19-.063-.555-.083-.694-.246-.067-.083-.024-.4-.024-.4a1.464,1.464,0,0,0,.73-.143c.091-.056.052-.063,0-.143a2.9,2.9,0,0,1-.155-1.452,1.19,1.19,0,0,0-.472-1.047,1.491,1.491,0,0,0-.738-.163,1.642,1.642,0,0,0-.595.1c-1,.4-.4,1.725-.753,2.483-.06.131-.143.174,0,.25a1.84,1.84,0,0,0,.682.147v.329c-.028.115-.278.194-.373.222a2.9,2.9,0,0,0-.4.135.1.1,0,0,0,0,.178,1.723,1.723,0,0,1,.274.067,2.578,2.578,0,0,1,1.083.587,1.614,1.614,0,0,1,.472,1.051.294.294,0,0,1-.131.274l-.135.083a.063.063,0,0,1-.1-.056,1.586,1.586,0,0,0-1.079-1.535c-.321-.111-.662-.119-.98-.23-.1-.032-.29-.075-.329-.182a1.189,1.189,0,0,1-.044-.349v-.27c0-.087.151-.182.182-.238a1.8,1.8,0,0,0,.163-.738c.206.056.23-.321.266-.44s.119-.492-.059-.555a.96.96,0,0,0,.1-.345,2.094,2.094,0,0,0-.028-.928,1.464,1.464,0,0,0-1.4-.976,1.5,1.5,0,0,0-1.5.892,1.952,1.952,0,0,0-.067.932,1.141,1.141,0,0,0,.111.424c-.151.067-.107.4-.079.5s.071.551.286.492a3.5,3.5,0,0,0,.091.571.817.817,0,0,0,.194.329c.04.048.063.052.059.111a2.421,2.421,0,0,1-.044.563c-.048.178-.44.254-.6.286a3.418,3.418,0,0,0-.976.274,4.24,4.24,0,1,1,7.547-.5,1.091,1.091,0,0,0-.527-.357Z" transform="translate(-237.31 -163.974)"/><path class="q" d="M379.517,303.359v-5.421l2.5,2.5.623-.646-3.569-3.569-3.569,3.569.627.623,2.5-2.475v5.421Z" transform="translate(-239.337 -187.313)"/><path class="q" d="M474.517,303.359v-5.421l2.5,2.5.623-.646-3.569-3.569-3.569,3.569.623.623,2.5-2.475v5.421Z" transform="translate(-296.661 -187.313)"/><path class="h" d="M476.457,266.758a.107.107,0,0,0-.171,0l-2.035,2.7a.1.1,0,0,0,.071.171l3.569.309a.1.1,0,0,0,.1-.155l-1.531-3.014Zm2.32,1.436a.107.107,0,0,0-.171,0l-.547.555a.1.1,0,0,0,0,.119l.563,1.095a.1.1,0,0,0,.079.052l1,.083a.1.1,0,0,0,.1-.155l-1.007-1.737Zm.242-.876a.524.524,0,1,0-.5-.342A.527.527,0,0,0,479.019,267.317Z" transform="translate(-298.909 -169.241)"/><path class="h" d="M476.366,260.33l-1.456-.127-.135-1.483a.6.6,0,0,0-.654-.543l-6.572.595a.6.6,0,0,0-.543.65l.591,6.56a.6.6,0,0,0,.654.539l.345-.028-.032.369a.595.595,0,0,0,.547.646l6.576.575a.6.6,0,0,0,.65-.547l.579-6.56a.595.595,0,0,0-.547-.646Zm-8.134,3.791a.155.155,0,0,1-.163-.135l-.4-4.426a.147.147,0,0,1,.135-.163l6.175-.555a.155.155,0,0,1,.163.135l.107,1.17-4.462-.4a.6.6,0,0,0-.65.543l-.329,3.768-.579.056Zm8.015-3-.4,4.426a.151.151,0,0,1-.163.135l-.4-.036-5.766-.5a.151.151,0,0,1-.139-.163l.083-.972.305-3.45a.147.147,0,0,1,.159-.139l4.382.4.654.06,1.142.1A.147.147,0,0,1,476.247,261.119Z" transform="translate(-294.551 -164.356)"/><rect class="g" width="67.024" height="49.971" transform="translate(125.058 150.743)"/><path class="r" d="M398.809,433.367a23.538,23.538,0,0,0-31.22,22.241,1.67,1.67,0,0,1-3.339,0,26.881,26.881,0,0,1,35.539-25.438" transform="translate(-232.549 -267.275)"/><path class="h" d="M452.37,432.35a26.917,26.917,0,0,1,18.2,25.438,1.67,1.67,0,1,1-3.339,0,23.574,23.574,0,0,0-15.84-22.241" transform="translate(-285.129 -269.455)"/><path class="r" d="M426.317,466.53h-.028a2.923,2.923,0,0,0-2.447,1.34,2.923,2.923,0,0,0-2.447-1.34h-.028a2.911,2.911,0,0,0-2.887,2.911,6.262,6.262,0,0,0,1.233,3.423,21.315,21.315,0,0,0,4.129,3.966,21.738,21.738,0,0,0,4.129-3.966,6.262,6.262,0,0,0,1.233-3.423,2.911,2.911,0,0,0-2.887-2.911Z" transform="translate(-265.271 -290.079)"/><rect class="g" width="101.683" height="75.619" transform="translate(210.568 129.855)"/><rect class="h" width="4.164" height="13.956" transform="translate(221.034 186.758)"/><rect class="h" width="4.164" height="31.232" transform="translate(228.966 169.482)"/><rect class="g" width="4.164" height="46.798" transform="translate(236.898 153.916)"/><rect class="h" width="4.164" height="57.903" transform="translate(244.83 142.811)"/><rect class="r" width="4.164" height="57.903" transform="translate(236.898 142.811)"/><rect class="r" width="4.164" height="31.827" transform="translate(252.762 168.888)"/><rect class="h" width="4.164" height="40.056" transform="translate(260.694 160.658)"/><rect class="h" width="4.164" height="52.549" transform="translate(268.625 148.166)"/><rect class="p" width="4.164" height="23.399" transform="translate(276.557 177.315)"/><rect class="p" width="4.164" height="34.206" transform="translate(284.489 166.508)"/><rect class="p" width="4.164" height="46.798" transform="translate(292.421 153.916)"/><rect class="p" width="4.164" height="46.798" transform="translate(300.353 153.916)"/><path class="j" d="M816.01,305.562l4.077-2.292L822,304.416l38.208,183.909-2.288.436-4.775-4.144Z" transform="translate(-492.393 -183.013)"/><path class="e" d="M826.29,303.27l37.831,185.491,2.288-.436L828.2,304.416Z" transform="translate(-498.596 -183.013)"/><path class="j" d="M755.38,328.62l29.078,2.784v2.249l-28.924-2.518Z" transform="translate(-455.808 -198.309)"/><path class="j" d="M762.547,397.7h30.835v3.292H762.15Z" transform="translate(-459.893 -239.992)"/><path class="j" d="M770.28,468.247l31.129-1.237,3.895,1.237v2.11l-27.659,1.456h-7.111Z" transform="translate(-464.799 -281.814)"/><path class="e" d="M789.247,471.843l27.262-1.713v2.11L788.85,473.7Z" transform="translate(-476.004 -283.697)"/><path class="e" d="M770.28,470.13l7.761,1.713-.4,1.852h-7.111Z" transform="translate(-464.799 -283.697)"/><path class="j" d="M777.39,543.889l34.369-3.189,3.787.987v2.2l-30.7,3.224-7.456.662Z" transform="translate(-469.089 -326.279)"/><path class="e" d="M795.86,546.763l27.417-2.756,3.415-.817v2.2l-30.7,3.224Z" transform="translate(-480.234 -327.782)"/><path class="e" d="M776.23,552.6l7.785-.4.131,1.852-7.456.662Z" transform="translate(-468.389 -333.219)"/><path class="j" d="M781.51,619.088l38.759-5.148,3.323,1.321v2.514L790.16,622.8H782.3Z" transform="translate(-471.575 -370.473)"/><path class="e" d="M803.32,623.223l33.433-5.953v2.514l-33.433,5.029Z" transform="translate(-484.735 -372.482)"/><path class="e" d="M782.68,632.324l8.186-.044v1.59h-7.857Z" transform="translate(-472.281 -381.539)"/><path class="j" d="M787.28,695.358l42.515-7.928,3.764,2.213v1.749l-37.3,9.05-7.69.583Z" transform="translate(-475.057 -414.817)"/><path class="e" d="M809.91,702.009l37.3-9v1.749l-37.3,9.05Z" transform="translate(-488.712 -418.184)"/><path class="e" d="M789.39,716.108l8.138-.409v1.8l-7.69.583Z" transform="translate(-476.33 -431.875)"/><path class="j" d="M756.978,297.49l-3.438.765,12.421,197.758,3.629,1.337h2.867Z" transform="translate(-454.698 -179.525)"/><path class="e" d="M757.98,297.863,772.269,497.35h2.867L759.658,297.49Z" transform="translate(-457.377 -179.525)"/><rect class="h" width="29.348" height="30.427" transform="matrix(0.797, -0.603, 0.603, 0.797, 282.88, 95.55)"/><rect class="g" width="29.348" height="30.427" transform="matrix(0.797, -0.603, 0.603, 0.797, 282.88, 95.55)"/><path class="q" d="M807.342,283.653l-3.268-4.331,3.5.484.107-.892-5-.694L802,283.229l.872.123.5-3.482,3.272,4.323Z" transform="translate(-496.689 -176.452)"/><path class="h" d="M784.786,255.675a4.6,4.6,0,0,1-7.317-4.363.369.369,0,1,1,.73.115,3.805,3.805,0,1,0,1.777-2.669l.869,1.146a.373.373,0,0,1-.591.448l-1.1-1.456a.373.373,0,0,1,.071-.52,4.6,4.6,0,0,1,5.552,7.333Z" transform="translate(-481.855 -157.925)"/><path class="h" d="M781.708,257.182l2.816-.067a.694.694,0,1,1,.036,1.384.671.671,0,0,1-.222-.032l-2.693-.833a.23.23,0,0,1-.151-.289.234.234,0,0,1,.214-.163Z" transform="translate(-484.309 -163.715)"/><path class="s" d="M799.573,355.526c-.293-1.063-.484-1.983-.484-1.983a4.18,4.18,0,0,0-.543-2.027v-.293h0l-.083-2.157a7.379,7.379,0,0,1,.5-1.15c.361-.694-.123-3.173-.123-3.173s-1.586-3.45-1.309-5.687-3.339-9.756-3.339-9.756a9.621,9.621,0,0,1,.226-2.2,1.688,1.688,0,0,0,.024-.46.256.256,0,0,0,0-.056h0a17.042,17.042,0,0,0-1.372-4.168l-.044-5.243a15.431,15.431,0,0,0-.746-7.214c-.48-1.432-.793-2.578-1-3.466-.024-.1-.044-.2-.063-.289,2.467-.476,4.363-.865,4.363-.865s-1.674-5.973-2.689-6.988-1.92-4.3-1.92-4.3-.67-4.24.1-5.517a8.221,8.221,0,0,0,.793-3.427s1.816-1.428,2.027-2.038a9.973,9.973,0,0,0,.52-2.7c-.028-.714-.285-1.348-.222-1.725s-.615-1.789-.329-2.479a1.786,1.786,0,0,0,.1-.658v-.02h0a9.237,9.237,0,0,0-.23-1.761,5.04,5.04,0,0,0-1.888-.92l-.048-.159-.123-.42a1.708,1.708,0,0,0-.186-.1v-.155l-.04-.611.242-1.388c.48-2.415-2.725-2.649-2.725-2.649a1.685,1.685,0,0,0-.964-.761c-.65-.2.032,3.6.341,3.835a14.49,14.49,0,0,1,1.337,1.923h0l.055.1a1.372,1.372,0,0,0-.139.159l.155.825.024.127a3.314,3.314,0,0,0-.476.888,1.864,1.864,0,0,1,.52,1.337,4.282,4.282,0,0,0,.254,1.65c-.036-.036-.464-.468-.868-.341s-1.539.512-1.539.512-.853.182-.765.369-.543,1.039-.543,1.039l-2.38-2.09c-.024-.067-.052-.131-.075-.2a5.477,5.477,0,0,1-.234-.944,5.505,5.505,0,0,0,.726-.266,1.586,1.586,0,0,0,.623-.432,2.479,2.479,0,0,0,.329-1,14.8,14.8,0,0,1,.793-1.939,6.21,6.21,0,0,0,.329-3.439,2.284,2.284,0,0,0-.4-.988c-.4-.5-1.087-.686-1.586-1.079s-.853-1.011-1.444-1.3a2.753,2.753,0,0,0-1.753-.083,9.437,9.437,0,0,0-3.24,1.341,1.665,1.665,0,0,1-1.075.4,1.467,1.467,0,0,1-.793-.547s0-.024,0-.032l-.024-.032a4.018,4.018,0,0,0-.294,1.737,1.617,1.617,0,0,0,.024.274.773.773,0,0,0,0,.1.575.575,0,0,1,0,.083h0a.678.678,0,0,1,0,.123.892.892,0,0,1-.206.317,1.983,1.983,0,0,0-.174.262.847.847,0,0,1,.028-.1,1.38,1.38,0,0,0-.214.738.75.75,0,0,0,.194.512,2.512,2.512,0,0,0,.4.286,4.138,4.138,0,0,0-.04.769,4.45,4.45,0,0,0,2.312,3.716c.032.063.059.127.087.194a5.52,5.52,0,0,1,.516,2.491.5.5,0,0,1-.024.186l-.079.1h0s-3.8.182-4.723-.595-2.181,2.066-2.181,2.066-1.352.317-1.634.063-1.872.036-1.872.036a3.438,3.438,0,0,0-2.407-.793,7.048,7.048,0,0,0-1.781-.9h-.048a1.983,1.983,0,0,0-.861-.075,17.526,17.526,0,0,1-2.507-2.28c-.579-.809-3.288-3.784-3.3-3.8v-.147l-.048-.448a1.362,1.362,0,0,1-.234.028l-.055-.151a8.232,8.232,0,0,0-.6-1.245s0-.567.139-.714a11.041,11.041,0,0,0-.155-2.213s-1.832-3.871-3.228-.873c0,0-2.776,2.011-.3,4.133,0,0,.972.424,1.122.793.1.238.448.888.682,1.321l.107.194-.028.024.052.369v.143c-.44.274-.734.539-.654.73a4.182,4.182,0,0,1,.313,1s3.47,4.018,3.966,5.774c0,0,9.078,4.934,12.013,5.2l-.4,2.653s-.1,1.586-.036,2.154-.23,3.141-.23,3.141-.361,3.787-.769,4.331-.242,2.8-.242,2.8a19.019,19.019,0,0,1-.46,3.224,8.2,8.2,0,0,0,0,3.208s-1.348,3.446,2.106,1.011c0,0,1.737-.174,3.736-.321v1.031c.048,1.943.139,4.62.305,6.643.294,3.569,1.658,10.617,1.658,10.617l.135,3.569a5.16,5.16,0,0,0-.063,1.023,6.619,6.619,0,0,0,1.095,3.526l.365,2.38a9.239,9.239,0,0,1,.75,2.471,1.377,1.377,0,0,1-.02.23,1.469,1.469,0,0,0,0,.365,20.038,20.038,0,0,0,.754,3.633s.139,2.6.535,2.733-.4,1.515-.607,1.916v-.071l-.044.079a1.907,1.907,0,0,0-.1.662.952.952,0,0,0,.468.9c.758.424,1.17.793.547.96a6.739,6.739,0,0,0-.678.171c0-.028-.028-.059-.036-.083a.4.4,0,0,0-.242.464,1.983,1.983,0,0,0,.266.872,9.484,9.484,0,0,0,1.13,1.88l.3-.044a1.489,1.489,0,0,1-.163.329,1.225,1.225,0,0,1-.424.4,1.435,1.435,0,0,1-.524.206,1.488,1.488,0,0,0-1.083.579,1.147,1.147,0,0,0,.2,1.781l2.824.853s4.787.389,4.509-.67-.488-1.983-.488-1.983a4.3,4.3,0,0,0-.46-1.892,2.535,2.535,0,0,0-.182-.274l.171-.024s.258-2.38.706-2.859c.107-.107.127-.19.1-.25.044-.131-.083-.2-.242-.238a.5.5,0,0,1-.028.1,2.381,2.381,0,0,0-.468-.036s-.2-1.237.286-1.709a.476.476,0,0,0,.083-.373,2.01,2.01,0,0,0-.071-.5.1.1,0,0,0,0,.028,18.445,18.445,0,0,0-1.233-2.875,3.569,3.569,0,0,1,.214-1.586c.294-.456-.278-6.139-.278-6.139a19.061,19.061,0,0,0-.4-4.025,4.54,4.54,0,0,1,.321-2.8v-.079h0s-.024-.171-.063-.432v.028c-.107-.726-.305-2.038-.44-2.645-.186-.861-.151-5.013-.151-5.013l.631-1.8,1.364,3,1.479,4.017a3.478,3.478,0,0,1,.738,1.705v.127a2.132,2.132,0,0,0,0,.274,2.439,2.439,0,0,0,.46,1.436,6.355,6.355,0,0,0,.988,2.38,2.178,2.178,0,0,1,.6,1.412,23.647,23.647,0,0,0,1.1,3.24,4.825,4.825,0,0,1,.349,1.884h0v.1s.127.991.159,1.832v.274a3.109,3.109,0,0,1-.087.631.139.139,0,0,0,0,.04v-.143a7.067,7.067,0,0,0-.131,1.745,4.467,4.467,0,0,0,.853,2.859c1.1,1.166,1.753.988,1.753.988s-.448,1.527-1.059,1.852a.243.243,0,0,0-.063.048.867.867,0,0,1,0-.087.722.722,0,0,0-.163.567,4.021,4.021,0,0,0,.857,2.205,1.245,1.245,0,0,0,.539.286l-.1.063a1.588,1.588,0,0,1-.21.111,1.129,1.129,0,0,1-.317.1,1.5,1.5,0,0,0-1.083.579,1.15,1.15,0,0,0,.206,1.781l2.82.853S799.87,356.588,799.573,355.526Z" transform="translate(-466.429 -168.45)"/><path class="t" d="M821.291,491.438l-2.732-.857a1.169,1.169,0,0,1-.2-1.781,1.44,1.44,0,0,1,1.047-.579,1.253,1.253,0,0,0,.508-.2,1.19,1.19,0,0,0,.4-.4,1.984,1.984,0,0,0,.266-1.055s2.927-.98,3.768-.143a2.071,2.071,0,0,1,.4.512,4.362,4.362,0,0,1,.448,1.888s.19.936.476,1.983S821.291,491.438,821.291,491.438Z" transform="translate(-506.367 -301.88)"/><path class="t" d="M854.421,486.84l-2.733-.857a1.173,1.173,0,0,1-.2-1.781,1.416,1.416,0,0,1,1.047-.579.905.905,0,0,0,.305-.1,1.685,1.685,0,0,0,.2-.107,1.719,1.719,0,0,0,.682-1.463s2.923-.98,3.768-.143a2.083,2.083,0,0,1,.3.373,4.314,4.314,0,0,1,.531,2.031s.186.936.472,1.983S854.421,486.84,854.421,486.84Z" transform="translate(-526.357 -299.099)"/><path class="e" d="M827.887,486.405a2.071,2.071,0,0,1,.4.512h0l-4.414.686a1.982,1.982,0,0,0,.266-1.055S827.039,485.569,827.887,486.405Z" transform="translate(-509.886 -301.868)"/><path class="e" d="M860.329,482.148l.032.829c-.646,1.166-3.99,1.043-4.981.512a1.694,1.694,0,0,0,.2-.107,1.719,1.719,0,0,0,.682-1.463s2.923-.98,3.768-.143A2.082,2.082,0,0,1,860.329,482.148Z" transform="translate(-528.899 -299.074)"/><path class="u" d="M832.2,407.5a7.526,7.526,0,0,0-.484,1.15l.115,2.974c-.706,1.273-4.64,1.011-5.2.353s-1.19-2.407-.595-2.733,1.023-1.852,1.023-1.852-.635.178-1.7-.992-.865-3.851-.7-4.5a13.342,13.342,0,0,0-.107-2.776,5.552,5.552,0,0,0-.341-1.983,24.476,24.476,0,0,1-1.067-3.24,2.221,2.221,0,0,0-.583-1.412,6.436,6.436,0,0,1-.96-2.38,2.49,2.49,0,0,1-.44-1.586,3.27,3.27,0,0,0-.714-1.935l-1.44-4.021-1.321-3.006-.611,1.8s-.032,4.152.155,5.013.5,3.153.5,3.153a4.639,4.639,0,0,0-.309,2.8,19.6,19.6,0,0,1,.4,4.021s.559,5.679.274,6.139a3.633,3.633,0,0,0-.2,1.586s1.674,3.256,1.19,3.728-.274,1.709-.274,1.709,1.055-.044.619.428-.682,2.855-.682,2.855l-4.537.7a9.64,9.64,0,0,1-1.094-1.88c-.654-1.372.067-1.249.666-1.424s.2-.535-.531-.96-.357-1.459-.357-1.459,1.023-1.888.639-2.023-.52-2.737-.52-2.737a16.7,16.7,0,0,1-.714-3.895,7.51,7.51,0,0,0-.714-2.8l-.353-2.38a6.528,6.528,0,0,1-1-4.45l-.139-3.657s-1.329-7.044-1.618-10.617c-.182-2.288-.278-5.417-.321-7.373-.024-1.095-.032-1.82-.032-1.82l16.213-2.332a13.364,13.364,0,0,0,.4,2.407c.2.888.5,2.035.968,3.466a15.882,15.882,0,0,1,.73,7.218l.052,5.243s1.586,3.45,1.313,4.664a10.153,10.153,0,0,0-.218,2.2s3.5,7.535,3.244,9.764,1.273,5.687,1.273,5.687S832.554,406.808,832.2,407.5Z" transform="translate(-500.382 -228.025)"/><path class="v" d="M843.47,424.269l4.93-.849S845.7,426.39,843.47,424.269Z" transform="translate(-521.713 -264.067)"/><path class="e" d="M852.413,411.28s.238,1.745-.793,2.447C851.6,413.727,853.512,413.35,852.413,411.28Z" transform="translate(-526.63 -256.741)"/><path class="e" d="M843.584,397.25s-4.013,3.569-5.529,3.343S843.584,397.25,843.584,397.25Z" transform="translate(-518.316 -248.275)"/><path class="e" d="M823.312,430.2s-3.117.837-3.173,2.1S823.312,430.2,823.312,430.2Z" transform="translate(-507.634 -268.158)"/><path class="v" d="M826.292,469.75s-4.414,1-3.129,1.515a21.531,21.531,0,0,0,3.371.888S827.97,472.173,826.292,469.75Z" transform="translate(-509.318 -292.022)"/><g class="w" transform="translate(307.73 137.85)"><path d="M820.472,474.961a.877.877,0,0,1-.432-.631l-.044.083s-.373,1.031.361,1.456l.238.147c.131-.032.274-.056.4-.1C821.6,475.746,821.206,475.389,820.472,474.961Z" transform="translate(-815.221 -432.636)"/><path d="M835.421,473.393c.119-.115.1-.4,0-.793a2.125,2.125,0,0,0-.21,1.1A.9.9,0,0,1,835.421,473.393Z" transform="translate(-824.455 -431.592)"/><path d="M831.83,427.4a5.158,5.158,0,0,0-.25,1.4,5.588,5.588,0,0,1,.309-.968S831.866,427.666,831.83,427.4Z" transform="translate(-822.268 -404.318)"/><path d="M857.577,420.8a1.915,1.915,0,0,0,.028-.416c-.048.286-.075.547-.1.793C857.53,421.023,857.554,420.919,857.577,420.8Z" transform="translate(-837.914 -400.082)"/><path d="M833.088,459.911a2.52,2.52,0,0,0,.079-.841,2.893,2.893,0,0,0-.178,1.063A1.039,1.039,0,0,1,833.088,459.911Z" transform="translate(-823.118 -423.428)"/><path d="M826.487,479a14.689,14.689,0,0,0-.428,2.336l-4.537.7a9.636,9.636,0,0,1-1.095-1.88c-.059-.123-.1-.23-.143-.329-.266.135-.365.424.028,1.237a9.361,9.361,0,0,0,1.095,1.884l4.533-.706a9.139,9.139,0,0,1,.682-2.855C826.836,479.163,826.689,479.056,826.487,479Z" transform="translate(-815.311 -435.454)"/><path d="M812.994,406.218s.139,2.6.523,2.733h0c.174-.44.286-.853.115-.912-.4-.139-.52-2.736-.52-2.736a16.875,16.875,0,0,1-.718-3.895,7.6,7.6,0,0,0-.71-2.8l-.357-2.38a6.52,6.52,0,0,1-1-4.454l-.143-3.653s-1.329-7.043-1.614-10.617c-.186-2.288-.278-5.417-.321-7.373,0-.353,0-.666-.02-.928H808.1s0,.726.032,1.824c.044,1.951.139,5.08.321,7.369.289,3.569,1.618,10.617,1.618,10.617l.139,3.657a6.528,6.528,0,0,0,1.023,4.485l.353,2.38a7.684,7.684,0,0,1,.714,2.8A17.153,17.153,0,0,0,812.994,406.218Z" transform="translate(-808.1 -369.2)"/><path d="M853.65,480.215a4.438,4.438,0,0,1-.793-1.765c-.452.44.147,2.05.674,2.673s4.486.924,5.191-.349l-.028-.718C857.719,481.1,854.174,480.837,853.65,480.215Z" transform="translate(-835.01 -435.122)"/><path d="M868.394,471.562a7.064,7.064,0,0,0-.484,1.15l.02.527a8.262,8.262,0,0,1,.349-.769,2.317,2.317,0,0,0,.127-.94Z" transform="translate(-844.19 -430.946)"/><path d="M851.846,465.313a7.341,7.341,0,0,0,.337-.912s-.635.178-1.7-.992a5.209,5.209,0,0,1-.793-3.569c-.167.646-.365,3.335.7,4.5A2.653,2.653,0,0,0,851.846,465.313Z" transform="translate(-833.114 -423.893)"/><path d="M838.361,421.624a20.046,20.046,0,0,1,.163,2.229,1.414,1.414,0,0,1,.063-.353,13.083,13.083,0,0,0-.107-2.776,5.644,5.644,0,0,0-.341-1.983,25.211,25.211,0,0,1-1.071-3.24,2.217,2.217,0,0,0-.583-1.412,6.484,6.484,0,0,1-.956-2.38,2.446,2.446,0,0,1-.44-1.586,3.291,3.291,0,0,0-.718-1.935l-1.436-4.021-1.325-3.006L831,402.925v.575l.5-1.459,1.325,3.006,1.436,4.017a3.291,3.291,0,0,1,.718,1.935,2.462,2.462,0,0,0,.436,1.586,6.187,6.187,0,0,0,.96,2.38,2.209,2.209,0,0,1,.583,1.408,24.723,24.723,0,0,0,1.067,3.244A5.728,5.728,0,0,1,838.361,421.624Z" transform="translate(-821.918 -388.485)"/></g><path class="x" d="M845.017,272.459l-.23,1.384.04.615.032.448-1.567.222-.19-.317h0a13.969,13.969,0,0,0-1.293-1.927c-.3-.234-.968-4.037-.337-3.835a1.653,1.653,0,0,1,.908.757S845.489,270.044,845.017,272.459Z" transform="translate(-520.348 -170.913)"/><path class="e" d="M847.737,282.9l-1.567.222-.19-.317h0a1.384,1.384,0,0,1,1.725-.353Z" transform="translate(-523.227 -178.91)"/><path class="y" d="M848.041,283.879l-2.054.563-.056-.309-.151-.825a1.432,1.432,0,0,1,1.983-.353l.119.42Z" transform="translate(-523.107 -179.156)"/><path class="x" d="M758.7,271.381l-2.165,1.273-.218-.4c-.226-.432-.567-1.087-.662-1.321-.147-.361-1.087-.793-1.087-.793-2.4-2.126.286-4.133.286-4.133,1.348-2.994,3.129.876,3.129.876a9.993,9.993,0,0,1,.151,2.213c-.155.147-.135.714-.135.714a8.253,8.253,0,0,1,.583,1.245C758.663,271.27,758.7,271.381,758.7,271.381Z" transform="translate(-467.467 -168.4)"/><path class="e" d="M762.884,280.8l-2.165,1.273-.218-.4c.3-.274,1.376-1.214,1.741-1.19a2.964,2.964,0,0,0,.523,0C762.844,280.692,762.884,280.8,762.884,280.8Z" transform="translate(-471.648 -177.821)"/><path class="y" d="M763.254,281.648l-2.435,1.3-.067-.535-.052-.365s1.4-1.293,1.82-1.261a2.182,2.182,0,0,0,.65-.028l.048.448Z" transform="translate(-471.769 -177.985)"/><path class="x" d="M822.741,288.618s-10.8,1.642-8.8.9a2.673,2.673,0,0,0,1.983-2.431,5.7,5.7,0,0,0-.5-2.495,10.65,10.65,0,0,0-1.043-1.919s8.114-4.878,6.615-.67a6.683,6.683,0,0,0-.4,1.983,5.575,5.575,0,0,0,.289,1.983,5.949,5.949,0,0,0,1.848,2.645Z" transform="translate(-503.748 -177.705)"/><path class="e" d="M822.085,282.007a6.685,6.685,0,0,0-.4,1.983,3.826,3.826,0,0,1-2.713.718,4.861,4.861,0,0,1-2.463-.111,10.647,10.647,0,0,0-1.043-1.919S823.584,277.8,822.085,282.007Z" transform="translate(-504.817 -177.705)"/><circle class="x" cx="4.485" cy="4.485" r="4.485" transform="translate(309.368 98.325)"/><path class="e" d="M822.741,296.628s-10.8,1.642-8.8.9a2.674,2.674,0,0,0,1.983-2.431,6.031,6.031,0,0,1,2.276-1.321,3.256,3.256,0,0,1,1.963-.107,2.774,2.774,0,0,1,.726.305,5.949,5.949,0,0,0,1.848,2.649Z" transform="translate(-503.748 -185.715)"/><path class="e" d="M848.27,284.815l-2.054.563-.056-.309a1.832,1.832,0,0,1,1.983-.758Z" transform="translate(-523.336 -180.092)"/><path class="e" d="M763.333,282.354l-2.435,1.3-.067-.535a18.415,18.415,0,0,1,2.467-1.19Z" transform="translate(-471.847 -178.691)"/><path class="e" d="M824.741,366.1c-4.176.825-10.117,1.92-11.077,1.666a27.708,27.708,0,0,0-5.493.071c-.024-1.095-.032-1.82-.032-1.82l16.2-2.324A13.369,13.369,0,0,0,824.741,366.1Z" transform="translate(-500.394 -228.025)"/><path class="z" d="M799.375,315.816s-13.738,2.907-15.241,2.51-9.122.4-9.122.4c-3.339,2.431-2.038-1.015-2.038-1.015a8.384,8.384,0,0,1,0-3.208,19.524,19.524,0,0,0,.452-3.232s-.163-2.257.23-2.8.738-4.331.738-4.331.278-2.578.222-3.141.028-2.154.028-2.154l.4-2.653c-2.84-.27-11.632-5.215-11.632-5.215-.484-1.753-3.847-5.774-3.847-5.774a4.247,4.247,0,0,0-.3-1.007c-.25-.595,3.093-1.931,3.093-1.931s2.645,2.994,3.2,3.8a17.089,17.089,0,0,0,2.427,2.28,1.807,1.807,0,0,1,.833.079.177.177,0,0,1,.044,0h0a6.705,6.705,0,0,1,1.725.9,3.268,3.268,0,0,1,2.328.793s1.539-.286,1.812-.032,1.586-.059,1.586-.059,1.21-2.84,2.11-2.062,4.573.6,4.573.6a5.384,5.384,0,0,1,2.38-1.456,3.26,3.26,0,0,1,1.963-.107,2.536,2.536,0,0,1,.793.345l2.312,2.1s.611-.853.527-1.039.742-.365.742-.365,1.079-.4,1.487-.512.793.305.845.341a4.361,4.361,0,0,1-.254-1.646,1.884,1.884,0,0,0-.5-1.34c1.19-3.292,4.275-.694,4.275-.694a6.425,6.425,0,0,1,.131,2.451c-.266.69.4,2.1.321,2.475a16.63,16.63,0,0,0,.218,1.729,10.278,10.278,0,0,1-.5,2.7c-.2.615-1.959,2.039-1.959,2.039a8.278,8.278,0,0,1-.793,3.427c-.765,1.273-.091,5.513-.091,5.513s.884,3.288,1.864,4.307S799.375,315.816,799.375,315.816Z" transform="translate(-470.892 -178.89)"/><path class="e" d="M804.225,302.895s-.464-1.225-.845-1.325a8.9,8.9,0,0,1-1.111-.448l.226-.472s1.428.333,1.67.738A3.262,3.262,0,0,1,804.225,302.895Z" transform="translate(-496.852 -189.986)"/><path class="e" d="M782.663,298.716c-.063.4-3.4.849-3.4.849l1.63-1.765h.044A6.7,6.7,0,0,1,782.663,298.716Z" transform="translate(-482.968 -188.267)"/><circle class="u" cx="0.301" cy="0.301" r="0.301" transform="translate(289.49 105.349)"/><circle class="u" cx="0.301" cy="0.301" r="0.301" transform="translate(289.899 105.936)"/><circle class="u" cx="0.301" cy="0.301" r="0.301" transform="translate(290.299 106.479)"/><circle class="u" cx="0.301" cy="0.301" r="0.301" transform="translate(290.716 107.066)"/><circle class="u" cx="0.246" cy="0.246" r="0.246" transform="translate(326.286 105.722)"/><circle class="u" cx="0.246" cy="0.246" r="0.246" transform="translate(326.346 106.277)"/><circle class="u" cx="0.246" cy="0.246" r="0.246" transform="translate(326.401 106.828)"/><path class="e" d="M808.24,332.06c-.04-.044,8.868,10.355,15.225,3.9C823.465,335.962,813.1,337.779,808.24,332.06Z" transform="translate(-500.454 -208.939)"/><path class="e" d="M796.47,346.59s5.088-.055,5.679,1.384l.056,1.523a.964.964,0,0,1-.944.036c-.524-.258-3.657-1.7-4.712-.908Z" transform="translate(-493.353 -217.706)"/><path class="z" d="M796.71,346.58s4.866-.056,5.429,1.321l.056,1.452a.932.932,0,0,1-.9.032c-.5-.242-3.5-1.618-4.505-.865Z" transform="translate(-493.497 -217.7)"/><path class="e" d="M802.4,318.49a16.312,16.312,0,0,0,2.1,3.308,13.255,13.255,0,0,0,3.2,2.859S802.511,319.188,802.4,318.49Z" transform="translate(-496.931 -200.751)"/><path class="e" d="M797.63,303.76s.992,3.629,3.224,4.787Z" transform="translate(-494.053 -191.863)"/><path class="e" d="M794.308,304.818c-.024-.067-.642,2.923,2.99,4.426C797.3,309.252,795.763,308.788,794.308,304.818Z" transform="translate(-492.015 -192.501)"/><path class="e" d="M850.108,296.471c-.056,0,1.808,1.091,2.32,1.586C852.444,298.077,851.179,296.352,850.108,296.471Z" transform="translate(-525.718 -187.461)"/><path class="t" d="M814.846,275.646a.711.711,0,0,0,.8.67,9.061,9.061,0,0,0,4.037-.539,1.534,1.534,0,0,0,.6-.432,2.531,2.531,0,0,0,.321-1,14.091,14.091,0,0,1,.753-1.939,6.417,6.417,0,0,0,.313-3.434,2.348,2.348,0,0,0-.4-.988c-.4-.5-1.051-.69-1.547-1.083s-.829-1.011-1.4-1.3a2.614,2.614,0,0,0-1.7-.083,8.943,8.943,0,0,0-3.113,1.3,1.563,1.563,0,0,1-1.039.4,1.451,1.451,0,0,1-.793-.563,4.14,4.14,0,0,0-.258,1.963.94.94,0,0,1,0,.3.892.892,0,0,1-.2.317,1.141,1.141,0,0,0-.159,1.416c.151.167.4.254.527.42.262.305.194.761.206,1.166a.587.587,0,0,0,.111.4.575.575,0,0,0,.559.111,1.586,1.586,0,0,1,.587-.079,1,1,0,0,1,.527.377A6.968,6.968,0,0,1,814.846,275.646Z" transform="translate(-502.051 -168.722)"/><g class="o" transform="translate(308.858 97.909)"><path d="M820.458,281.06a1.531,1.531,0,0,1-.6.432,9.076,9.076,0,0,1-4.041.535.911.911,0,0,1-.424-.079.932.932,0,0,1-.373-.591,7.028,7.028,0,0,0-1.245-2.61.972.972,0,0,0-.527-.373,1.5,1.5,0,0,0-.587.079.591.591,0,0,1-.559-.111.611.611,0,0,1-.115-.4,1.735,1.735,0,0,0-.206-1.166c-.147-.171-.373-.254-.527-.424a.881.881,0,0,1-.119-.9,1.035,1.035,0,0,0,0,1.19c.155.167.4.25.527.42.266.305.2.761.206,1.166a.611.611,0,0,0,.115.4.571.571,0,0,0,.559.111,1.586,1.586,0,0,1,.587-.079,1,1,0,0,1,.527.377,6.981,6.981,0,0,1,1.245,2.606.952.952,0,0,0,.373.595.963.963,0,0,0,.424.079,9.116,9.116,0,0,0,4.041-.539,1.5,1.5,0,0,0,.6-.432,1.188,1.188,0,0,0,.182-.369Z" transform="translate(-810.946 -272.696)"/><path d="M812.245,270.675a.616.616,0,0,0,.127-.234.793.793,0,0,0,0-.293,4.193,4.193,0,0,1,.147-1.63l-.024-.028a4.145,4.145,0,0,0-.262,1.963A1.041,1.041,0,0,1,812.245,270.675Z" transform="translate(-811.708 -268.49)"/></g><path class="e" d="M819.12,297.637s5.632.527,6.1-.337" transform="translate(-507.02 -187.965)"/><path class="e" d="M846.35,291.245s3.113-.119,3.843,1.023" transform="translate(-523.451 -184.309)"/><rect class="h" width="29.348" height="30.427" transform="matrix(1, 0.002, -0.002, 1, 328.695, 245.411)"/><rect class="h" width="29.348" height="30.427" transform="matrix(1, 0.002, -0.002, 1, 328.695, 245.411)"/><path class="q" d="M892.827,695.371v-5.417l2.495,2.5.627-.646-3.569-3.569-3.569,3.569.623.623,2.5-2.471v5.422Z" transform="translate(-549.071 -423.86)"/><path class="g" d="M885.542,652.542h4.866V647.68h-.349a4.525,4.525,0,0,0-4.529,4.525C885.53,652.312,885.534,652.435,885.542,652.542Z" transform="translate(-547.092 -399.386)"/><path class="g" d="M888.3,656.819a4.529,4.529,0,1,0,3.879-7.349v4.85H887.32A4.513,4.513,0,0,0,888.3,656.819Z" transform="translate(-548.172 -400.466)"/><path class="aa" d="M299.866,285.23l-.746.448,1.007,3.649s.333.19.813.508a11.393,11.393,0,0,1,3.01,2.669c1.138,1.642,6.2,6.25,5.552,4.331s-.936-1.559-.936-1.559a3.311,3.311,0,0,0-1.626-4.2c-2.078-.991-5.092-3.847-6.421-5.156C300.127,285.492,299.866,285.23,299.866,285.23Z" transform="translate(-193.249 -180.682)"/><path class="ab" d="M314.716,306.947a6.516,6.516,0,0,1,1.138,1.463,2.185,2.185,0,0,1,.159,1.8c-.135.321-.365.595-.5.912-.662,1.531,1.059,3.2.734,4.842a4.783,4.783,0,0,1-1.9,2.38c-.785.686-1.559,1.586-1.348,2.61a5.551,5.551,0,0,0,.635,1.321,1.432,1.432,0,0,1,.079,1.4c-.46.71-1.808.591-1.983,1.416-.174.738.841,1.5.436,2.13a.92.92,0,0,1-1,.278,7.325,7.325,0,0,0-1.067-.29,1.313,1.313,0,0,0-1.241,1.947c.21.377.615.7.567,1.122a.884.884,0,0,1-.488.627,1.844,1.844,0,0,1-2.447-.73,4.131,4.131,0,0,1-.194-2.15,2.612,2.612,0,0,0-.52-2.054,3.376,3.376,0,0,0-.88-.535,9.256,9.256,0,0,1-2.435-1.757,3.2,3.2,0,0,1-1.134-2.316c.059-1,.9-1.868.829-2.867s-1.075-1.741-1.927-2.352-1.745-1.551-1.467-2.562c.3-1.091,1.713-1.412,2.411-2.3a3.045,3.045,0,0,0,.524-1.166c.186-.738.234-1.5.4-2.241a3.173,3.173,0,0,1,1.146-1.916,3.706,3.706,0,0,1,2.657-.349,7.2,7.2,0,0,0,2.725.139c.662-.163,1.261-.555,1.931-.674a2.514,2.514,0,0,1,2.233.813c.317.345.317.436.761.484A1.586,1.586,0,0,1,314.716,306.947Z" transform="translate(-193.001 -192.639)"/><g class="o" transform="translate(105.645 113.114)"><path d="M334.359,352.49a3.416,3.416,0,0,1-1.079.547,3.283,3.283,0,0,1,1.079-.547Z" transform="translate(-319.506 -334.381)"/><path d="M326.532,360.477a1.253,1.253,0,0,0-.452.056,1.34,1.34,0,0,1,1.035-.4,7.191,7.191,0,0,1,1.067.289,1.376,1.376,0,0,0,.44.028.216.216,0,0,1-.02.044.932.932,0,0,1-1,.278A7.37,7.37,0,0,0,326.532,360.477Z" transform="translate(-315.162 -338.994)"/><path d="M302.516,308.619c-.178.742-.226,1.507-.4,2.245a3.046,3.046,0,0,1-.523,1.166c-.7.888-2.114,1.21-2.411,2.3-.278,1.011.611,1.947,1.463,2.558s1.856,1.3,1.927,2.352-.765,1.868-.825,2.867a3.2,3.2,0,0,0,1.134,2.32,9.28,9.28,0,0,0,2.435,1.757,3.173,3.173,0,0,1,.876.535,2.571,2.571,0,0,1,.523,2.05,4.109,4.109,0,0,0,.194,2.154,1.86,1.86,0,0,0,2.15.857,1.285,1.285,0,0,1-.286.222,1.844,1.844,0,0,1-2.447-.73,4.146,4.146,0,0,1-.194-2.154,2.581,2.581,0,0,0-.524-2.05,3.172,3.172,0,0,0-.876-.535,9.348,9.348,0,0,1-2.435-1.757,3.2,3.2,0,0,1-1.134-2.32c.059-1,.9-1.864.829-2.867s-1.075-1.737-1.927-2.352-1.745-1.547-1.467-2.558c.3-1.091,1.713-1.412,2.411-2.3a3.045,3.045,0,0,0,.524-1.166c.186-.738.234-1.5.4-2.245a3.172,3.172,0,0,1,1.158-1.912,2.3,2.3,0,0,1,.424-.226A3.3,3.3,0,0,0,302.516,308.619Z" transform="translate(-298.55 -306.83)"/></g><path class="ac" d="M260.554,334.06l-.813-1.13a2.33,2.33,0,0,0,.666,3.427C262.557,337.677,260.554,334.06,260.554,334.06Z" transform="translate(-169.187 -209.464)"/><path class="e" d="M260.554,334.06l-.813-1.13a2.33,2.33,0,0,0,.666,3.427C262.557,337.677,260.554,334.06,260.554,334.06Z" transform="translate(-169.187 -209.464)"/><path class="aa" d="M237.314,424.7s-.143,2.118-.476,4.18a10.069,10.069,0,0,1-1.027,3.546c-1.083,1.5-.845,6.346-.845,6.346l-1.348,5.509a6.414,6.414,0,0,1-1.035,3.2c-.107.186-.182.3-.182.3l.94,1.586,1.515.377s2.6-.865,1.82-2.574a2.614,2.614,0,0,1-.174-1.083,21.926,21.926,0,0,1,1.463-5.925s3.569-6.806,3.2-8.2a2.589,2.589,0,0,1-.075-.46,14.58,14.58,0,0,1,.793-4.22Z" transform="translate(-152.99 -264.839)"/><path class="aa" d="M165.559,395.417a42.861,42.861,0,0,0-7.408,6.9,15.193,15.193,0,0,1-3.391,2.923l-1.713,1.027a2.241,2.241,0,0,0-.591.567,4.2,4.2,0,0,0-.266.4l2.467,2.875s.678-.523,1.428-1.19a8.069,8.069,0,0,0,1.892-2.177c.444-1.158,3.2-2.5,3.2-2.5s5.112-3.026,5.7-3.53a10.15,10.15,0,0,1,1.836-1.233c.349-.19.754-.4,1.222-.6a28.163,28.163,0,0,0,3.787-2.272l-2.38-3.569-4.363,1.781A3.141,3.141,0,0,0,165.559,395.417Z" transform="translate(-104.591 -245.729)"/><path class="e" d="M232.582,480.026c-.107.186-.182.3-.182.3l.94,1.586,1.515.377s2.6-.865,1.82-2.574a2.614,2.614,0,0,1-.174-1.083c-.793.186-1.067,1.3-1.067,1.3s-.1.46-1.317.888A1.277,1.277,0,0,1,232.582,480.026Z" transform="translate(-152.99 -297.381)"/><path class="b" d="M231.393,480.181c-.357.286-.5,1.586-.547,2.479-.028.436-.036.773-.036.841a2.793,2.793,0,0,0,2.189.432c.841-.226,4.212.793,4.212.793a9.549,9.549,0,0,0,3.407-.559c1.11-.4,1-.884.531-1.293a3.835,3.835,0,0,0-1.218-.654,2.915,2.915,0,0,1-1.229-1,7,7,0,0,0-1.586-1.515,2.726,2.726,0,0,0-1.555-.619c-.857.139-1.13,1.309-1.13,1.309s-.1.456-1.313.888S231.425,480.153,231.393,480.181Z" transform="translate(-152.03 -297.65)"/><path class="e" d="M230.846,488.11c-.028.436-.036.773-.036.841a2.793,2.793,0,0,0,2.189.432c.841-.226,4.212.793,4.212.793a9.549,9.549,0,0,0,3.407-.559c1.11-.4,1-.884.531-1.293a12.538,12.538,0,0,1-3.688.726C236.208,488.994,231.988,488.3,230.846,488.11Z" transform="translate(-152.03 -303.101)"/><path class="e" d="M152.531,427.424h-.075a4.2,4.2,0,0,0-.266.4l2.467,2.875s.678-.523,1.428-1.19c-.2-1.475-3.319-2.356-3.319-2.356Z" transform="translate(-104.591 -266.317)"/><path class="b" d="M146.58,428.359s.234,3.193.928,4.363c.524.9.98.746,1.856.29.278-.147.6-.321.98-.508,1.586-.761,1.614-1.543,1.614-1.543,2.308-2.257-2.725-3.68-2.725-3.68l-.234.29a3.569,3.569,0,0,0-1.646.349,4.8,4.8,0,0,0-.773.44Z" transform="translate(-101.205 -266.396)"/><path class="e" d="M146.58,429.318s.234,3.193.928,4.363c.524.9.98.746,1.856.289a3.173,3.173,0,0,1-1.63-1.983,9.812,9.812,0,0,1-.4-3.117,4.8,4.8,0,0,0-.757.448Z" transform="translate(-101.205 -267.355)"/><path class="aa" d="M293.156,321.524l-4.275,3.137-.88.646.619,2.114.638,2.181,1.793,1.892a8.218,8.218,0,0,0,3.787-1.519,2.574,2.574,0,0,0,.92-1.634,2.473,2.473,0,0,1,.147-.579,2.107,2.107,0,0,1,.361-.591,2.419,2.419,0,0,1,.666-.52,5.846,5.846,0,0,1,2.978-.468s-.448-5.473-1.336-4.644c-.575.539-2.05.4-3.018.206-.523-.1-.9-.2-.9-.2Z" transform="translate(-186.539 -202.54)"/><circle class="e" cx="4.513" cy="4.513" r="4.513" transform="translate(109.924 116.176)"/><circle class="aa" cx="4.513" cy="4.513" r="4.513" transform="translate(110.067 116.089)"/><path class="b" d="M258.786,331.7a11.052,11.052,0,0,0-1.876,2.114l1.1,6.4,6.1,2.253h.024c.349-.3,4.759-4.1,6.512-3.5,1.82.623,5.306-1.432,5.306-1.432s1.475-3.1,1.868-3.764-.321-3.542-.321-3.542c-.123.214-.242.4-.361.591a5.552,5.552,0,0,1-1.11,1.265,2.3,2.3,0,0,1-1.543.607,1.691,1.691,0,0,0-.448.024c-2.169.4-2.776-1.769-2.951-2.673-.04-.23-.052-.4-.052-.4l-.92-1.943-.579-1.218s-9.491,4.8-10.311,5.005A1.3,1.3,0,0,0,258.786,331.7Z" transform="translate(-167.779 -205.572)"/><path class="ab" d="M307.3,337.36h0a6.052,6.052,0,0,1-.4.543l1.19,1.983a6.568,6.568,0,0,0-.087-1.364Z" transform="translate(-197.943 -212.137)"/><path class="h" d="M305.426,339.58a4.68,4.68,0,0,1-.424.4l-.052.04,1.444,2.407c.135-.27.254-.5.345-.654Z" transform="translate(-196.767 -213.477)"/><path class="h" d="M302.62,341.524l1.812,3.03c.111-.23.226-.456.333-.674l-1.567-2.61A2.41,2.41,0,0,1,302.62,341.524Z" transform="translate(-195.361 -214.497)"/><path class="h" d="M299.71,342.139l2.419,4.037.329-.678-2.042-3.4H300.3a1.882,1.882,0,0,0-.448.028Z" transform="translate(-193.605 -214.993)"/><path class="h" d="M299.731,346.727l-.293.178h0l-3.1-5.156a1.959,1.959,0,0,0,.872.23l2.677,4.462Z" transform="translate(-191.572 -214.786)"/><path class="ab" d="M287.55,326.706l2.027,3.379v-.071a3.988,3.988,0,0,1-.056-.4l-.92-1.939-.579-1.218Z" transform="translate(-186.268 -205.56)"/><path class="h" d="M285.18,327.836l6.576,10.962c.21-.1.4-.19.571-.274l-6.579-10.974Z" transform="translate(-184.837 -206.218)"/><path class="h" d="M282.81,329.022l6.536,10.9q.309-.115.595-.238l-6.564-10.946Z" transform="translate(-183.407 -206.936)"/><path class="h" d="M280.44,330.212l6.449,10.756c.21-.052.42-.115.627-.182l-6.508-10.855Z" transform="translate(-181.977 -207.654)"/><path class="h" d="M278.07,331.392l6.274,10.462a4.666,4.666,0,0,0,.686-.079l-6.4-10.664Z" transform="translate(-180.547 -208.366)"/><path class="h" d="M275.69,332.572l5.889,9.82a1.324,1.324,0,0,1,.4.063,2,2,0,0,0,.444.1l-6.151-10.26Z" transform="translate(-179.111 -209.078)"/><path class="h" d="M273.31,333.748l5.743,9.582a3.967,3.967,0,0,1,.631-.182l-5.806-9.677Z" transform="translate(-177.675 -209.79)"/><path class="ab" d="M270.93,334.914l5.727,9.558c.194-.1.4-.194.571-.278L271.5,334.64Z" transform="translate(-176.239 -210.496)"/><path class="ab" d="M268.53,336.074,274.3,345.7c.178-.115.361-.222.539-.325l-5.731-9.574Z" transform="translate(-174.791 -211.196)"/><path class="ab" d="M266.13,337.25l5.854,9.756c.167-.119.345-.238.52-.357l-5.8-9.649Z" transform="translate(-173.343 -211.92)"/><path class="ab" d="M263.71,338.3l5.949,9.947.508-.4-5.889-9.824Z" transform="translate(-171.882 -212.542)"/><path class="h" d="M261.435,339.322l-.115.087,6.08,10.141c.143-.119.313-.254.5-.4L261.867,339.1h0A1.237,1.237,0,0,0,261.435,339.322Z" transform="translate(-170.44 -213.187)"/><path class="h" d="M259.832,340.59c-.151.147-.305.309-.452.476l5.874,9.792.337.127v-.02l.293-.25Z" transform="translate(-169.27 -214.087)"/><path class="h" d="M258.057,342.64c-.159.194-.3.4-.4.531l5,8.328.944.349Z" transform="translate(-168.232 -215.323)"/><path class="h" d="M256.91,344.91l-.02.032.278,1.622,3.442,5.743.944.349Z" transform="translate(-167.767 -216.693)"/><path class="ab" d="M225.93,330.38l.3,1.717,1.38,2.3.944.349Z" transform="translate(-136.335 -199.371)"/><path class="ab" d="M227.17,337.58l.135.777.424.159Z" transform="translate(-137.083 -203.716)"/><path class="e" d="M261.64,328.773c.305.964.631,1.836.631,1.836l2.249,4.684,4.977-2.154a7.713,7.713,0,0,0,.428-2.471c-.071-.952.4-2.312,2.776-3.141.139-.048.282-.1.436-.139a5.207,5.207,0,0,0,.793-.3,4.561,4.561,0,0,0,2.491-2.649l.032-.1L279.721,322a1.19,1.19,0,0,0-.087-.147c-.524-.1-.9-.2-.9-.2l-1.5-.024-4.275,3.137-.579-1.218s-9.49,4.8-10.311,5.005A1.3,1.3,0,0,0,261.64,328.773Z" transform="translate(-170.633 -202.646)"/><path class="ac" d="M268.633,311.477a4.438,4.438,0,0,1-1.693,2.4c-1.384,1-1.19,1.563-1.19,1.563l-4.1,2.514s-.71.956-1.412.793,1,4.363,1,4.363l2.249,4.684,4.977-2.154a7.713,7.713,0,0,0,.428-2.471c-.075-1.007.432-2.471,3.216-3.276a4.7,4.7,0,0,0,3.288-2.951c.02-.063.028-.1.028-.1l3.272-2.344a1.825,1.825,0,0,0-1.233-.92,4.337,4.337,0,0,1-.527-.111c-.48-.143-.706-.4-.7-.833,0-.6-.024-3.173-1.13-3.252S268.633,311.477,268.633,311.477Z" transform="translate(-169.687 -195.257)"/><path class="ac" d="M299.428,319.59l-2.078,1.864.539,1.61c.02-.063.028-.1.028-.1l3.272-2.344a1.824,1.824,0,0,0-1.233-.92A4.331,4.331,0,0,1,299.428,319.59Z" transform="translate(-192.181 -201.415)"/><path class="e" d="M299.428,319.59l-2.078,1.864.539,1.61c.02-.063.028-.1.028-.1l3.272-2.344a1.824,1.824,0,0,0-1.233-.92A4.331,4.331,0,0,1,299.428,319.59Z" transform="translate(-192.181 -201.415)"/><path class="e" d="M299.866,285.23l-.746.448,1.007,3.649s.333.19.813.508c-.083-.4-.448-2.269-.559-3.288a1.473,1.473,0,0,1,0-.666c.048-.036.079,0,.147.028C300.127,285.492,299.866,285.23,299.866,285.23Z" transform="translate(-193.249 -180.682)"/><path class="ac" d="M282.394,278.363s-1.261,5.183-.69,7.8c0,0,.476,3.835-.107,5.667l6.246-.972.222-1.158a3.464,3.464,0,0,1-1.3-1.793c-.182-1-.492-2.078-.492-2.078a16.58,16.58,0,0,0-.4-2.776c-.234-.678.734-.793,1.467-.325a1.705,1.705,0,0,1,.274.206.916.916,0,0,0,.234,1.21,2.6,2.6,0,0,0,.873.4h0a8.564,8.564,0,0,0,1.408.25s-.448-2.221-.571-3.371c-.044-.373-.052-.631,0-.662.218-.131,1.753,1.388,1.753,1.388s.075-1.912-.757-2.308c0,0-.131.547-.579.349s-5.314-2.9-5.314-2.9S282.823,275.73,282.394,278.363Z" transform="translate(-182.651 -175.616)"/><path class="e" d="M294.56,286l.631,2.288a1.708,1.708,0,0,1,.274.206.916.916,0,0,0,.234,1.21,2.6,2.6,0,0,0,.873.4h0a9.014,9.014,0,0,0,1.19.19s-.448-2.221-.575-3.367Z" transform="translate(-190.497 -181.147)"/><path class="ac" d="M295.15,286.11l.67,2.439a.916.916,0,0,0,.234,1.21,5.884,5.884,0,0,0,2.284.631s-.448-2.221-.571-3.371Z" transform="translate(-190.853 -181.213)"/><path class="ad" d="M295.29,286l.67,2.435a.924.924,0,0,0,.23,1.214,5.886,5.886,0,0,0,2.288.627s-.448-2.221-.575-3.367Z" transform="translate(-190.938 -181.147)"/><path class="e" d="M248.619,427.262l-4.553-2.562s-.143,2.118-.476,4.18c1.567.992,3.022,1.935,4.248,2.6A14.43,14.43,0,0,1,248.619,427.262Z" transform="translate(-159.742 -264.839)"/><path class="e" d="M185.9,395.4a14.171,14.171,0,0,0,1.888,2.51s.46.638,1.265,1.531c.349-.19.754-.4,1.221-.6a28.159,28.159,0,0,0,3.787-2.272L191.682,393l-4.363,1.781A3.141,3.141,0,0,0,185.9,395.4Z" transform="translate(-124.931 -245.711)"/><path class="b" d="M201.544,351.889c-.817,1.281-4.791,5.552-4.791,5.552a21.851,21.851,0,0,0-1.793,2.709c-.7,1.309-2.84,2.939-4.478,4.414s-1.638.488-2.606,1.019,1.912,3.609,1.912,3.609,4.874,6.742,10.4,7.028,13.6,7.579,16.954,8.3,1.273-1.19,2.7-1.686a4.182,4.182,0,0,0,2.126-2.066s-.524-3.843-.1-4.692a26.409,26.409,0,0,0,.928-4.315,20.71,20.71,0,0,1,.238-3.569,21.358,21.358,0,0,0-.048-5.116,4.753,4.753,0,0,1,.757-2.53s-.329-.547.131-1.765-.4-5.108-.4-5.108c-7.123-4.18-8.348-8.677-8.348-8.677l-.892.274C208.6,343.85,202.357,350.608,201.544,351.889Z" transform="translate(-126.005 -216.747)"/><path class="e" d="M254.66,345.262s.559,6.048,9.249,8.408c-7.131-4.172-8.356-8.67-8.356-8.67Z" transform="translate(-166.422 -216.747)"/><path class="e" d="M245.88,371.92s-7.162,11.569-7.345,12.175S246.174,372.241,245.88,371.92Z" transform="translate(-156.69 -232.991)"/><path class="e" d="M245.446,362.78s-5.5,8.245-6.576,8.594C238.87,371.374,244.141,363.415,245.446,362.78Z" transform="translate(-156.894 -227.476)"/><path class="e" d="M236.513,357.86s-3.879,2.776-6.893,2.451Z" transform="translate(-151.312 -224.507)"/><path class="e" d="M237.214,353.36s-3.724,1.551-4.664,1.467Z" transform="translate(-153.08 -221.792)"/><path class="e" d="M232.071,358.55l.282,7.65L231,363.944Z" transform="translate(-139.394 -216.369)"/><path class="e" d="M323.541,313.6c-.071.424-.3.845-.182,1.257a1.717,1.717,0,0,0,.547.718,3.362,3.362,0,0,1,1.19,1.939c.1,1.1-.773,2.106-.682,3.2a1.844,1.844,0,0,0,.345.936,1.864,1.864,0,0,0,.436.428,1.828,1.828,0,0,0,1.356.3,2.34,2.34,0,0,0,1.693-1.622,4.9,4.9,0,0,0,.036-2.431,21.884,21.884,0,0,0-2.419-5.949.928.928,0,0,0-.321-.4,2.978,2.978,0,0,0-2.023.044C323.057,312.4,323.938,313.368,323.541,313.6Z" transform="translate(-207.855 -196.732)"/><path class="ab" d="M323.908,313.382a2.92,2.92,0,0,0-.186,1.257,1.7,1.7,0,0,0,.551.718,3.342,3.342,0,0,1,1.19,1.939c.1,1.1-.793,2.106-.686,3.2a1.884,1.884,0,0,0,.349.936,1.774,1.774,0,0,0,.432.428,1.84,1.84,0,0,0,1.36.3,2.336,2.336,0,0,0,1.689-1.622,4.85,4.85,0,0,0,.04-2.431,21.882,21.882,0,0,0-2.419-5.949.956.956,0,0,0-.321-.4,2.978,2.978,0,0,0-2.023.044C323.416,312.16,324.3,313.148,323.908,313.382Z" transform="translate(-208.074 -196.599)"/><path class="aa" d="M340.887,383.23l-2.257,1.725.845.6,4.581,3.248s1.586,3.288,4.363,2.38-1.586-3.724-1.888-3.843a8.739,8.739,0,0,1-.861-.448l-4.073-3.113Z" transform="translate(-217.09 -239.816)"/><path class="e" d="M340.887,383.23l-2.257,1.725.845.6a7.04,7.04,0,0,0,2.13-1.777Z" transform="translate(-217.09 -239.816)"/><path class="e" d="M271.362,339.267l-4.882,3.173,3.427,4.834c.349-.3,4.759-4.1,6.512-3.5,1.82.623,5.306-1.432,5.306-1.432s1.475-3.1,1.868-3.764-.321-3.542-.321-3.542a2.419,2.419,0,0,1,.666-.52,3.229,3.229,0,0,0-.646.04,2.32,2.32,0,0,0-1.491,2.336v.341a5.526,5.526,0,0,0,.044.607v.1a3.258,3.258,0,0,1-.627,2.752,4.271,4.271,0,0,1-2.423,1.983C277.093,343.221,271.362,339.267,271.362,339.267Z" transform="translate(-173.554 -210.42)"/><path class="ac" d="M271.8,340.035l-4.882,3.173,3.855,5.461a11.754,11.754,0,0,0,2.538-1.82c.627-.773,3.815-2.058,3.815-2.058,3.847,1.356,5.5-.952,5.5-.952s4.466,6.952,4.759,6.984a25.54,25.54,0,0,1,2.713,1.935,15.693,15.693,0,0,0,2.419,2.606,3.447,3.447,0,0,1,.595.27,1.221,1.221,0,0,1,.159.1l-1.638.952a.4.4,0,0,0,.028.059l.02.032a2.645,2.645,0,0,0,1,1c.742.4,5.584-2.622,5.5-3.3a.738.738,0,0,0-.147-.349,4.1,4.1,0,0,0-1.261-.984l-.127-.071-.048-.024a27.755,27.755,0,0,0-3.708-3.22c-.908-.412-3.966-5.338-3.966-5.338s-1.586-2.114-1.38-2.57-.813-4.3-1.456-4.363-.928-.948-.928-.948c.424-.892-.02-1.19-.52-1.269a3.051,3.051,0,0,0-.9,0,2.431,2.431,0,0,0-1.491,2.677,5.732,5.732,0,0,0,.056.706,3.258,3.258,0,0,1-.627,2.752,4.271,4.271,0,0,1-2.423,1.983C277.533,343.989,271.8,340.035,271.8,340.035Z" transform="translate(-173.819 -210.898)"/><path class="e" d="M335.6,381.155a.559.559,0,0,1,.059.2c.079.678-4.759,3.712-5.5,3.3a2.7,2.7,0,0,1-.912-.853l-.02-.032a.4.4,0,0,1-.028-.06l1.638-.952a1.221,1.221,0,0,0-.159-.1l.071-.04a4.9,4.9,0,0,0,3.466-2.522Z" transform="translate(-211.399 -237.927)"/><path class="ac" d="M330.838,382.874l-1.638.952a2.629,2.629,0,0,0,1.047,1.087c.742.4,5.584-2.621,5.5-3.3-.06-.539-1.007-1.114-1.408-1.333A4.894,4.894,0,0,1,330.838,382.874Z" transform="translate(-211.399 -238.036)"/><path class="ad" d="M330.838,382.874l-1.638.952a2.629,2.629,0,0,0,1.047,1.087c.742.4,5.584-2.621,5.5-3.3-.06-.539-1.007-1.114-1.408-1.333A4.894,4.894,0,0,1,330.838,382.874Z" transform="translate(-211.399 -238.036)"/><path class="ac" d="M305.545,338l1.19.512,1.19-3.2a3.049,3.049,0,0,0-.9,0A2.459,2.459,0,0,0,305.545,338Z" transform="translate(-197.124 -210.88)"/><path class="e" d="M305.675,337.922l1.19.508,1.19-3.2a3.049,3.049,0,0,0-.9,0A2.462,2.462,0,0,0,305.675,337.922Z" transform="translate(-197.202 -210.832)"/><path class="e" d="M324.185,313.317c-.075.424-.305.845-.186,1.257a1.694,1.694,0,0,0,.547.718,3.3,3.3,0,0,1,1.19,1.939c.1,1.1-.793,2.106-.686,3.2a1.876,1.876,0,0,0,.325.956,1.829,1.829,0,0,0,.436.4,1.808,1.808,0,0,0,1.356.3,1.667,1.667,0,0,0,.48-.159,1.884,1.884,0,0,1-.769.333,1.816,1.816,0,0,1-1.793-.722,1.911,1.911,0,0,1-.349-.94c-.091-1.1.793-2.106.686-3.2a3.154,3.154,0,0,0-1.19-1.939,1.674,1.674,0,0,1-.551-.718,2.954,2.954,0,0,1,.186-1.257c.4-.234-.484-1.19-.04-1.586a.732.732,0,0,1,.23-.1C323.788,312.218,324.55,313.095,324.185,313.317Z" transform="translate(-208.05 -196.708)"/><path class="e" d="M296.2,336.256s-1.547.107-1.733.908c0,0,1.483-1.432,1.277-1.8" transform="translate(-190.443 -210.931)"/><path class="aa" d="M358.852,396.9s-4-1.916-3.458.492S358.852,396.9,358.852,396.9Z" transform="translate(-227.175 -247.629)"/><rect class="r" width="4.164" height="46.798" transform="matrix(0.91, -0.415, 0.415, 0.91, 123.211, 135.346)"/><rect class="b" width="5.453" height="3.601" rx="1.801" transform="translate(98.463 106.975)"/></g></svg>