<svg xmlns="http://www.w3.org/2000/svg" width="531.248" height="581.601" viewBox="0 0 531.248 581.601"><defs><style>.a{fill:#d0cde1;}.b{fill:#6c63ff;}.c{fill:#3f3d56;}.d{fill:#a0616a;}.e,.g{fill:#2f2e41;}.f{fill:#575a89;}.g{opacity:0.2;}</style></defs><g transform="translate(-10 134.018)"><ellipse class="a" cx="151.84" cy="7.536" rx="151.84" ry="7.536" transform="translate(237.567 432.511)"/><path class="a" d="M408.954,180.071a98.645,98.645,0,0,0-159.243-14.71l-6.349-5.547a107.059,107.059,0,0,1,172.846,15.964Z" transform="translate(-206.943 -257.169)"/><path class="b" d="M487.775,314.127l-7-4.7A98.694,98.694,0,0,0,483.8,204.3l7.255-4.294A107.126,107.126,0,0,1,487.775,314.127Z" transform="translate(-281.79 -281.399)"/><path class="c" d="M232.077,318.523a107.053,107.053,0,0,1-.878-141.83l6.348,5.548a98.623,98.623,0,0,0,.809,130.658Z" transform="translate(-194.778 -274.049)"/><path class="b" d="M324.417,411.909a107.234,107.234,0,0,1-79.771-35.66l6.279-5.625A98.642,98.642,0,0,0,406.335,359.8l7,4.7a107,107,0,0,1-88.915,47.405Z" transform="translate(-207.347 -331.775)"/><path class="c" d="M378.782,296.317H263.532V245.784h1.773v48.76H378.782Z" transform="translate(-73.081 -211.492)"/><circle class="c" cx="9.752" cy="9.752" r="9.752" transform="translate(181.586 32.728)"/><rect class="b" width="53.192" height="1.773" transform="translate(277.824 100.524)"/><rect class="b" width="53.192" height="1.773" transform="translate(277.824 105.843)"/><rect class="b" width="53.192" height="1.773" transform="translate(277.824 111.163)"/><path class="d" d="M754.083,529.835l-5.709,19.635s-.518,9.805,13.043,9.164l-1.643-9,6.41-16.448Z" transform="translate(-376.152 -251.381)"/><path class="d" d="M576.573,238.177l5.839,18.246-8.758,16.056v18.246h11.678l16.057-37.952L592.629,233.8Z" transform="translate(-180.85 -73.713)"/><path class="a" d="M584.832,300.947H568.776l-1.46,21.165-2.19,24.814,26.275-6.568Z" transform="translate(-178.162 -94.882)"/><path class="d" d="M540.3,455.5,526.43,498.558l-14.6,63.5,13.867,4.38,21.165-59.847,15.327-32.113,3.649,35.762,5.109,59.117,13.867,2.19V508.775l9.488-53.278Z" transform="translate(-161.361 -143.606)"/><path class="e" d="M805.741,735.267l-16.056-3.649-10.218,13.867s-21.637,10.5-13.137,10.948c13.867.73,41.236,0,41.236-1.46S805.741,735.267,805.741,735.267Z" transform="translate(-381.189 -314.995)"/><path class="e" d="M720.472,735.267l-16.057-3.649L694.2,745.485s-21.637,10.5-13.137,10.948c13.867.73,41.236,0,41.236-1.46S720.472,735.267,720.472,735.267Z" transform="translate(-354.307 -314.995)"/><path class="e" d="M795.389,473.132l-32.843,5.109-9.038,70.065s6.849,6.569,24.365,2.189v2.19s26.274-12.407,32.843,0l.45-1.949a105.088,105.088,0,0,0-4.358-62.08C803.257,479.632,799.221,472.585,795.389,473.132Z" transform="translate(-377.771 -233.495)"/><circle class="d" cx="18.246" cy="18.246" r="18.246" transform="translate(380.761 132.716)"/><path class="f" d="M808.536,370.823l-21.9,43.79a49.908,49.908,0,0,0,5.839,32.843c5.368,9.5,18.271,29.551,28.464,45.176,7.823,11.992-2.544,21.376-2.544,21.376l37.577-5.246-22.625-67.875L830.431,382.5,815.1,378.121Z" transform="translate(-387.999 -201.25)"/><path class="d" d="M828.426,483.8,811.64,495.482s-6.568,7.3,4.379,15.327l4.379-8.028,15.327-8.758Z" transform="translate(-395.481 -236.869)"/><path class="f" d="M752.851,524.131,779.49,389.476,769.275,395.6a14.1,14.1,0,0,0-6.8,10.937Z" transform="translate(-377.564 -207.131)"/><path class="g" d="M583.107,462.425l.73,15.327-2.19,4.379Z" transform="translate(-183.37 -145.79)"/><path class="f" d="M833.267,388.943h9.488a12.455,12.455,0,0,1,6.569,8.028c1.46,5.839,6.569,31.383,6.569,31.383l2.919,14.6L840.566,468.5l-10.948-13.137,9.488-13.867-13.867-34.3S823.05,392.592,833.267,388.943Z" transform="translate(-400.323 -206.963)"/><path class="g" d="M625.077,303.614l10.4,26.273-9.488,13.867,7.3-13.867Z" transform="translate(-197.062 -95.723)"/><ellipse class="d" cx="1.825" cy="2.919" rx="1.825" ry="2.919" transform="translate(404.846 151.692)"/><path class="e" d="M797.156,335.314h0a23.057,23.057,0,0,1-14.8-2.19l-4.418-2.286L777,325.807a3.124,3.124,0,0,0-4.955-1.921h0S755,306.362,769.727,299.028s17.572-4.413,17.572-4.413-3.842-26.874,16.7-21.493,14.874,30.572-1.095,31.239C802.9,304.361,816.538,328.266,797.156,335.314Z" transform="translate(-380.994 -170.225)"/><path class="e" d="M799.221,295.044s-12.757-23.963,8.389-25.892a19.715,19.715,0,0,1,9.069,1.126,18.676,18.676,0,0,0-10.939-2c-21.146,1.93-8.389,25.892-8.389,25.892Z" transform="translate(-390.391 -168.889)"/><path class="a" d="M935.722,744.453s6.984-23.5-19.575-36.877Z" transform="translate(-429.045 -307.415)"/><path class="a" d="M946.006,750.268s2.768-23.192,33.7-24.645Z" transform="translate(-438.458 -313.104)"/></g></svg>